<svg xmlns="http://www.w3.org/2000/svg" viewBox="0 0 114.8 63"><path d="M114.8 57.4c0-15.2-6-29.8-16.8-40.6A57.37 57.37 0 0057.4 0C42.2 0 27.6 6 16.8 16.8A57.37 57.37 0 000 57.4h18.1c0-10.4 4.1-20.4 11.5-27.8C37 22.2 47 18.1 57.4 18.1c10.4 0 20.4 4.1 27.8 11.5S96.7 47 96.7 57.4h18.1z" fill="#eee"/><path d="M1.4 57.4c0-10.7 3.1-21.2 8.8-30.2 5.8-9 14-16.2 23.7-20.7S54.4.4 65 1.8c10.6 1.4 20.6 5.9 28.7 12.8L84 26.1c-6-5.1-13.3-8.3-21-9.4-7.8-1.1-15.6.1-22.7 3.4S27.2 28.6 23 35.2c-4.2 6.6-6.4 14.3-6.4 22.1H1.4z" fill="#54bbab"/><circle cx="56.5" cy="58.5" r="4.5"/><path d="M56.9 58.4l37-42.5" fill="none" stroke="#000" stroke-width="3" stroke-linecap="round"/></svg>