<svg xmlns="http://www.w3.org/2000/svg" viewBox="0 0 114.8 62.6"><path d="M114.8 57.4c0-15.2-6-29.8-16.8-40.6S72.6 0 57.4 0 27.6 6 16.8 16.8A57.37 57.37 0 000 57.4h18.1c0-10.4 4.1-20.4 11.5-27.8C37 22.2 47 18.1 57.4 18.1c10.4 0 20.4 4.1 27.8 11.5C92.6 37 96.7 47 96.7 57.4h18.1z" fill="#eee"/><path d="M1.4 57.4c0-9.6 2.5-19.1 7.2-27.4l13.1 7.4c-3.4 6.1-5.3 13-5.3 20.1h-15z" fill="#f59148"/><circle cx="58.7" cy="58.1" r="4.5"/><path fill="none" stroke="#000" stroke-width="3" stroke-linecap="round" d="M57.3 57.1L9.9 30.8"/></svg>