<svg xmlns="http://www.w3.org/2000/svg" viewBox="0 0 115.4 59.9"><path d="M114.8 57.4c0-15.2-6-29.8-16.8-40.6A57.37 57.37 0 0057.4 0C42.2 0 27.6 6 16.8 16.8A57.37 57.37 0 000 57.4h18.1c0-10.4 4.1-20.4 11.5-27.8C37 22.2 47 18.1 57.4 18.1c10.4 0 20.4 4.1 27.8 11.5S96.7 47 96.7 57.4h18.1z" fill="#eee"/><path d="M1.4 57.4c0-14.8 5.9-29 16.3-39.5S42.3 1.5 57.1 1.4s29 5.7 39.6 16.1c10.6 10.4 16.6 24.5 16.7 39.3l-15 .2c-.1-10.8-4.5-21.2-12.2-28.8-7.7-7.6-18.1-11.8-29-11.8-10.8.1-21.2 4.4-28.9 12.1S16.4 46.6 16.4 57.4h-15z" fill="#e62336"/><circle cx="57.4" cy="55.4" r="4.5"/><path d="M59 55.7h54.9" fill="none" stroke="#000" stroke-width="3" stroke-linecap="round"/></svg>