<svg fill="none" height="84" viewBox="0 0 60 84" width="60" xmlns="http://www.w3.org/2000/svg"><g fill="#000"><path d="m16.435 27.6577c0 .4939 0 1.9755-2.0559 1.9755h-1.6447v-11.4581h1.6926c1.7805 0 1.9961 1.0628 1.9961 1.9755zm-1.3213-10.7983h-4.6547v14.2555h4.6547c2.6108 0 3.6247-.8772 3.6247-3.1372v-8.0602c0-2.2561-.9461-3.0581-3.6247-3.0581z"/><path d="m42.2236 16.8594v31.6047h3.2056v-22.5765h3.3733v-2.9515h-3.3733v-3.1845h4.028v-2.8922z"/><path d="m26.1357 72.7198c0 .9364-.3753 1.13-.9341 1.13-.4272 0-.9142-.1304-.9142-1.13v-65.45759h-3.2854v65.49709c0 2.6037 1.3732 3.9787 3.992 3.9787h.4511c2.6147 0 3.992-1.375 3.992-3.9787v-46.2869h-3.3014z"/><path d="m15.7526 60.7203c.1317 1.0905-.2156 1.3473-.8663 1.4263l-.6866.083-3.2894-26.5236.7265-.0909c.6667-.079 1.01.079 1.1457 1.1853zm-3.8803-27.8394-4.5349.5532 3.992 32.0037 4.5349-.5492c2.547-.3121 3.537-1.6159 3.1937-4.2355l-3.038-24.4967c-.3233-2.5959-1.5608-3.556-4.1437-3.2557"/><path d="m40.7705 73.6443 2.0399.2489 2.016-16.2508 3.7405.4544.1956-1.5844-3.7405-.4543.5589-4.5043 5.1417.6243.1916-1.5251-7.1856-.8732z"/><path d="m33.7486 18.0685h1.6846c1.5968 0 1.8204.9759 1.8204 1.8253v1.296c0 1.2604-.6108 1.9005-1.8204 1.9005h-1.6846zm0 6.3572h1.6846c1.8204 0 1.8204 1.4185 1.8204 1.8847v4.7413h2.0439v-5.1838c0-1.4619-.7984-1.9044-1.3932-2.1138l-1.2415-.4426 1.2614-.324c.511-.1382 1.3613-.5808 1.3613-2.0427v-1.6397c0-1.7384-.7984-2.4496-2.7944-2.4496h-4.7904v14.2239h2.0479z"/><path d="m35.7805 39.0604h-.8543v-3.6705h.8543c.6747 0 .9741.1659.9741 1.1498v1.2959c0 1.0194-.3713 1.2248-.9741 1.2248zm.9741 3.8998v21.4425h3.2255v-21.889c0-1.1537-.3992-1.9755-1.1736-2.4773.5469-.3319 1.1736-1.0234 1.1736-2.4458v-1.6357c0-2.102-1.0499-3.1253-3.2175-3.1253h-5.0619v31.5731h3.2255v-22.6555h.8543c.6308 0 .9741.1936.9741 1.213z"/><path d="m51.896 43.3236v1.0549c-.1916 0-.4431-.0829-1.0938-.6716-.2235-.2015-.4351-.3952-.6826-.5888-.1893-.189-.4152-.3383-.6642-.4388-.2491-.1004-.516-.1501-.7849-.1459h-.0838c-.7306 0-1.1697.3279-1.1697 1.2446v.1383c0 .8653.503 1.1221 1.1058 1.1221h.7505v-.8653h-.6667c-.2994 0-.4351-.0909-.4351-.3477s.1357-.3556.4351-.3556h.0958c.3622.0001.7095.1421.9661.3951l.7345.5532c.7984.6124 1.2336.7902 1.8803.7902h.3992v-2.7342h-1.7086v.8732z"/><path d="m51.3572 39.8348c.3553 0 .5469.1264.5469.3951 0 .2686-.1916.3951-.5469.3951h-2.6028c-.3992 0-.5549-.1383-.5549-.3951 0-.2569.1637-.4149.5549-.4149zm-3.968.3318v.166c0 .8692.467 1.2564 1.3572 1.2564h2.6108c.9182 0 1.3653-.3951 1.3653-1.2683v-.158c0-.8416-.4551-1.2565-1.3653-1.2565h-2.6108c-.8902 0-1.3572.3715-1.3572 1.2604z"/><path d="m49.7843 35.9904c-.079-.1493-.2028-.2709-.3542-.348-.1515-.0771-.3234-.1059-.4921-.0826h-.4352c-.7425 0-1.1097.2884-1.1097 1.1853v.083c0 .9087.459 1.13 1.1097 1.13h.511v-.8179h-.4471c-.2754 0-.3992-.083-.3992-.3319s.1397-.3398.3992-.3398h.5349c.2715 0 .3513.0751.3513.324v.5057h.7984v-.5531c0-.2489.0879-.32.3394-.32h.9062c.2834 0 .4351.1066.4351.3555 0 .249-.1517.3754-.4351.3754h-.7146v.8534h.7984c.6706 0 1.1617-.2489 1.1617-1.1853v-.1422c.0224-.1619.0071-.3268-.0448-.482-.0518-.1551-.1389-.2965-.2545-.4132s-.2567-.2056-.4124-.2601c-.1557-.0544-.3219-.0728-.4859-.0538h-1.014c-.165-.0171-.3308.0255-.4665.1199-.1358.0944-.2324.2343-.272.3938"/><path d="m51.3572 32.794c.3553 0 .5469.1264.5469.3951s-.1916.3951-.5469.3951h-2.6028c-.3992 0-.5549-.1383-.5549-.3951s.1637-.4188.5549-.4188zm-3.968.3358v.166c0 .8653.467 1.2564 1.3572 1.2564h2.6108c.9182 0 1.3653-.3951 1.3653-1.2722v-.1581c0-.8376-.4551-1.2564-1.3653-1.2564h-2.6108c-.8902 0-1.3572.3951-1.3572 1.2643z"/></g><path d="m16.4355 27.6577c0 .4939 0 1.9755-2.0559 1.9755h-1.6447v-11.4581h1.6926c1.7805 0 1.996 1.0628 1.996 1.9755zm-1.3213-10.7983h-4.6547v14.2555h4.6547c2.6107 0 3.6247-.8772 3.6247-3.1372v-8.0602c0-2.2561-.9461-3.0581-3.6247-3.0581z" fill="#54bbab"/><path d="m42.2236 16.8594v31.6047h3.2056v-22.5765h3.3733v-2.9515h-3.3733v-3.1845h4.028v-2.8922z" fill="#e62336"/><path d="m26.1362 72.7198c0 .9364-.3753 1.13-.9342 1.13-.4271 0-.9141-.1304-.9141-1.13v-65.45759h-3.2855v65.49709c0 2.6037 1.3733 3.9787 3.9921 3.9787h.4511c2.6147 0 3.992-1.375 3.992-3.9787v-46.2869h-3.3014z" fill="#e62336"/><path d="m15.7521 60.7203c.1317 1.0905-.2156 1.3473-.8663 1.4263l-.6866.083-3.2894-26.5236.7265-.0909c.6667-.079 1.01.079 1.1457 1.1853zm-3.8803-27.8394-4.53489.5532 3.99199 32.0037 4.535-.5492c2.5469-.3121 3.5369-1.6159 3.1936-4.2355l-3.038-24.4967c-.3233-2.5959-1.5608-3.556-4.1437-3.2557" fill="#e62336"/><path d="m40.77 73.6441 2.0399.2489 2.016-16.2508 3.7405.4544.1956-1.5844-3.7405-.4544.5589-4.5042 5.1417.6242.1916-1.5251-7.1856-.8732z" fill="#54bbab"/><path d="m33.7486 18.0682h1.6846c1.5968 0 1.8204.9759 1.8204 1.8254v1.296c0 1.2604-.6108 1.9004-1.8204 1.9004h-1.6846zm0 6.3573h1.6846c1.8204 0 1.8204 1.4184 1.8204 1.8847v4.7413h2.0439v-5.1839c0-1.4619-.7984-1.9044-1.3932-2.1138l-1.2415-.4425 1.2614-.324c.511-.1383 1.3613-.5808 1.3613-2.0427v-1.6397c0-1.7385-.7984-2.4497-2.7944-2.4497h-4.7904v14.2239h2.0479z" fill="#54bbab"/><path d="m35.7805 39.0604h-.8543v-3.6705h.8543c.6747 0 .9741.1659.9741 1.1498v1.2959c0 1.0194-.3713 1.2248-.9741 1.2248zm.9741 3.8998v21.4425h3.2255v-21.889c0-1.1537-.3992-1.9755-1.1736-2.4773.5469-.3319 1.1736-1.0234 1.1736-2.4458v-1.6357c0-2.102-1.0499-3.1253-3.2175-3.1253h-5.0619v31.5731h3.2255v-22.6555h.8543c.6308 0 .9741.1936.9741 1.213z" fill="#e62336"/><path d="m51.8965 43.3236v1.0549c-.1916 0-.4431-.0829-1.0938-.6716-.2235-.2015-.4351-.3952-.6826-.5888-.1893-.189-.4152-.3383-.6643-.4388-.249-.1004-.5159-.1501-.7848-.1459h-.0839c-.7305 0-1.1696.3279-1.1696 1.2446v.1383c0 .8653.503 1.1221 1.1058 1.1221h.7505v-.8653h-.6667c-.2994 0-.4351-.0909-.4351-.3477s.1357-.3556.4351-.3556h.0958c.3622.0001.7095.1421.9661.3951l.7345.5532c.7984.6124 1.2335.7902 1.8802.7902h.3992v-2.7342h-1.7085v.8732z" fill="#000"/><path d="m51.3567 39.8348c.3553 0 .5469.1264.5469.3951 0 .2686-.1916.3951-.5469.3951h-2.6028c-.3992 0-.5548-.1383-.5548-.3951 0-.2569.1636-.4149.5548-.4149zm-3.968.3318v.166c0 .8692.467 1.2564 1.3573 1.2564h2.6107c.9182 0 1.3653-.3951 1.3653-1.2683v-.158c0-.8416-.4551-1.2565-1.3653-1.2565h-2.6107c-.8903 0-1.3573.3715-1.3573 1.2604z" fill="#000"/><path d="m49.7838 35.9904c-.079-.1493-.2027-.2709-.3542-.348s-.3234-.1059-.4921-.0826h-.4351c-.7426 0-1.1098.2884-1.1098 1.1853v.083c0 .9087.4591 1.13 1.1098 1.13h.5109v-.8179h-.4471c-.2754 0-.3992-.083-.3992-.3319s.1397-.3398.3992-.3398h.535c.2714 0 .3513.0751.3513.324v.5057h.7984v-.5531c0-.2489.0878-.32.3393-.32h.9062c.2834 0 .4351.1066.4351.3555 0 .249-.1517.3754-.4351.3754h-.7146v.8534h.7984c.6707 0 1.1617-.2489 1.1617-1.1853v-.1422c.0224-.1619.0071-.3268-.0448-.482-.0518-.1551-.1389-.2965-.2545-.4132s-.2567-.2056-.4124-.2601c-.1557-.0544-.3219-.0728-.4859-.0538h-1.014c-.165-.0171-.3308.0255-.4665.1199-.1358.0944-.2324.2343-.272.3938" fill="#000"/><path d="m51.3567 32.794c.3553 0 .5469.1264.5469.3951s-.1916.3951-.5469.3951h-2.6028c-.3992 0-.5548-.1383-.5548-.3951s.1636-.4188.5548-.4188zm-3.968.3358v.166c0 .8653.467 1.2564 1.3573 1.2564h2.6107c.9182 0 1.3653-.3951 1.3653-1.2722v-.1581c0-.8376-.4551-1.2564-1.3653-1.2564h-2.6107c-.8903 0-1.3573.3951-1.3573 1.2643z" fill="#000"/></svg>