<svg fill="none" height="112" viewBox="0 0 80 112" width="80" xmlns="http://www.w3.org/2000/svg"><g fill="#fff"><path d="m21.9134 36.8767c0 .6586 0 2.6341-2.7412 2.6341h-2.193v-15.2775h2.2569c2.3739 0 2.6613 1.4171 2.6613 2.634zm-1.7618-14.3977h-6.2063v19.0073h6.2063c3.481 0 4.833-1.1695 4.833-4.1828v-10.747c0-3.0081-1.2615-4.0775-4.833-4.0775z"/><path d="m56.2983 22.479v42.1396h4.2742v-30.102h4.4976v-3.9352h-4.4976v-4.2461h5.3706v-3.8563z"/><path d="m34.8474 96.9596c0 1.2486-.5003 1.5067-1.2455 1.5067-.5695 0-1.2189-.1738-1.2189-1.5067v-87.27674h-4.3806v87.32944c0 3.4717 1.831 5.3047 5.3227 5.3047h.6015c3.4864 0 5.3227-1.833 5.3227-5.3047v-61.7159h-4.4019z"/><path d="m21.0034 80.9603c.1757 1.454-.2874 1.7965-1.155 1.9018l-.9155.1107-4.3859-35.3648.9687-.1212c.8889-.1054 1.3467.1053 1.5276 1.5804zm-5.1736-37.119-6.0466.7375 5.3227 42.6717 6.0466-.7323c3.3958-.4162 4.7159-2.1547 4.2581-5.6474l-4.0506-32.6623c-.4311-3.4611-2.0811-4.7413-5.5249-4.3409"/><path d="m54.3608 98.1922 2.7199.3319 2.688-21.6678 4.9874.6059.2608-2.1125-4.9874-.6059.7452-6.0056 6.8556.8323.2555-2.0334-9.5808-1.1643z"/><path d="m44.9981 24.0912h2.2462c2.1291 0 2.4271 1.3012 2.4271 2.4339v1.7279c0 1.6805-.8143 2.5339-2.4271 2.5339h-2.2462zm0 8.4764h2.2462c2.4271 0 2.4271 1.8912 2.4271 2.5129v6.3217h2.7253v-6.9118c0-1.9492-1.0646-2.5392-1.8577-2.8184l-1.6553-.59 1.682-.432c.6813-.1844 1.815-.7744 1.815-2.7236v-2.1863c0-2.318-1.0645-3.2662-3.7259-3.2662h-6.3872v18.9652h2.7305z"/><path d="m47.7074 52.0805h-1.1391v-4.8941h1.1391c.8995 0 1.2987.2213 1.2987 1.5331v1.7279c0 1.3592-.495 1.6331-1.2987 1.6331zm1.2987 5.1996v28.5901h4.3007v-29.1854c0-1.5382-.5322-2.634-1.5648-3.3031.7292-.4425 1.5648-1.3644 1.5648-3.2609v-2.181c0-2.8027-1.3998-4.1671-4.29-4.1671h-6.7492v42.0975h4.3007v-30.2074h1.1391c.841 0 1.2987.2582 1.2987 1.6173z"/><path d="m69.1947 57.7647v1.4066c-.2555 0-.5908-.1106-1.4584-.8956-.2981-.2686-.5802-.5268-.9102-.7849-.2524-.2521-.5536-.4511-.8856-.5851-.3321-.134-.688-.2002-1.0465-.1946h-.1118c-.974 0-1.5595.4373-1.5595 1.6595v.1843c0 1.1538.6706 1.4962 1.4743 1.4962h1.0007v-1.1537h-.8889c-.3992 0-.5802-.1212-.5802-.4636 0-.3425.181-.4742.5802-.4742h.1278c.4828.0001.946.1896 1.2881.5269l.9793.7375c1.0646.8165 1.6447 1.0536 2.507 1.0536h.5323v-3.6455h-2.2781v1.1642z"/><path d="m68.4763 53.113c.4737 0 .7292.1686.7292.5268s-.2555.5268-.7292.5268h-3.4704c-.5323 0-.7398-.1844-.7398-.5268s.2182-.5531.7398-.5531zm-5.2908.4425v.2213c0 1.159.6228 1.6752 1.8098 1.6752h3.481c1.2242 0 1.8204-.5268 1.8204-1.691v-.2107c0-1.1221-.6068-1.6753-1.8204-1.6753h-3.481c-1.187 0-1.8098.4952-1.8098 1.6805z"/><path d="m66.3792 47.9872c-.1053-.1992-.2703-.3613-.4723-.4641-.202-.1027-.4312-.1412-.6561-.1102h-.5802c-.99 0-1.4797.3846-1.4797 1.5805v.1106c0 1.2117.6121 1.5067 1.4797 1.5067h.6813v-1.0905h-.5961c-.3673 0-.5323-.1106-.5323-.4425s.1863-.4531.5323-.4531h.7132c.362 0 .4684.1001.4684.432v.6743h1.0646v-.7375c0-.3319.1171-.4267.4524-.4267h1.2082c.3779 0 .5802.1422.5802.4741s-.2023.5005-.5802.5005h-.9527v1.1379h1.0645c.8942 0 1.5489-.3319 1.5489-1.5805v-.1896c.0299-.2159.0095-.4357-.0596-.6426-.0692-.2069-.1853-.3953-.3394-.551-.1542-.1556-.3422-.2742-.5499-.3467-.2076-.0726-.4292-.0971-.6479-.0718h-1.352c-.22-.0228-.441.0339-.622.1598s-.3098.3124-.3626.5251"/><path d="m68.4763 43.7253c.4737 0 .7292.1686.7292.5268s-.2555.5268-.7292.5268h-3.4704c-.5323 0-.7398-.1844-.7398-.5268s.2182-.5584.7398-.5584zm-5.2908.4478v.2213c0 1.1537.6228 1.6752 1.8098 1.6752h3.481c1.2242 0 1.8204-.5268 1.8204-1.6963v-.2107c0-1.1169-.6068-1.6753-1.8204-1.6753h-3.481c-1.187 0-1.8098.5268-1.8098 1.6858z"/></g></svg>