<svg xmlns="http://www.w3.org/2000/svg" viewBox="0 0 326.08 313.09"><defs><style>.cls-2{fill:#f4812e}.cls-4{fill:#ffb400}</style></defs><g id="Layer_2" data-name="Layer 2"><g id="button"><path d="M293 195.81a108.83 108.83 0 00-14.23-27.27l-.23 1.12-7 35.54c-4.26 33.94-37.89 59.95-87 62.76-62.58 3.56-126.67-31.88-143.09-79.17-6-17.35-4.81-33.89 2.26-48l.15-.3 14.56-31.36 1.28-2.75c-47 19.19-70.48 60.32-54.66 105.86 20.87 60.08 102.28 105.09 181.8 100.55S313.81 255.86 293 195.81z" fill="#0c1424"/><path class="cls-2" d="M282.68 148.56l-4 20-.23 1.12-7 35.54c-4.26 33.94-37.89 59.95-87 62.76-62.58 3.56-126.67-31.88-143.09-79.17-6-17.35-4.81-33.89 2.26-48l.15-.3 14.56-31.36 1.28-2.75 9-19.28a53.7 53.7 0 00-4.21 17.45 7.82 7.82 0 00-.07 1.1 58 58 0 00.42 10.73 67.41 67.41 0 003.11 12.83c15.39 44.28 75.39 77.47 134 74.13 28.92-1.65 52.1-11.88 66.31-27.14a57.18 57.18 0 008.1-10.8.57.57 0 00.1-.13 54.79 54.79 0 006.31-16.73zM323.85 151.88L312 163.76l-11.88-11.88a7.64 7.64 0 0110.8-10.81l1.08 1.08 1.08-1.08a7.66 7.66 0 0110.8 0 7.67 7.67 0 010 10.81zM279.94 22.39l-20.42 20.42-20.41-20.42a13.12 13.12 0 0118.56-18.56l1.85 1.85 1.86-1.85a13.16 13.16 0 0118.56 0 13.16 13.16 0 010 18.56zM35.45 60.59L19.25 76.8 3 60.59a10.42 10.42 0 0114.78-14.74l1.47 1.47 1.47-1.47a10.45 10.45 0 0114.73 0 10.45 10.45 0 010 14.74z"/><path d="M282.9 180.14a86.59 86.59 0 00-4.41-10.48l-7 35.54c-4.26 33.94-37.89 59.95-87 62.76-62.58 3.56-126.67-31.88-143.09-79.17-6-17.35-4.81-33.89 2.26-48l.15-.3 14.56-31.36c-30.32 19.2-43.88 51-31.83 85.67 18.57 53.48 91.05 93.58 161.86 89.55s113.08-50.7 94.5-104.21z" fill="#767676"/><path class="cls-4" d="M276.34 165.25a.57.57 0 01-.1.13c-.15-.3-.33-.6-.5-.9.2.25.4.52.6.77z"/><path class="cls-4" d="M280.15 117.06c-15.39-44.29-75.39-77.47-134-74.14-37.27 2.13-65 18.5-76.34 41.53l-1.23 2.63a53.7 53.7 0 00-4.21 17.45 7.82 7.82 0 00-.07 1.1 58 58 0 00.42 10.73 67.41 67.41 0 003.11 12.83c15.39 44.28 75.39 77.47 134 74.13 28.92-1.65 52.1-11.88 66.31-27.14a57.18 57.18 0 008.1-10.8.57.57 0 00.1-.13 54.79 54.79 0 006.34-16.69c0-.05.05-.1 0-.15a59.06 59.06 0 00-2.53-31.35zm-57.75 5.29a13.86 13.86 0 01-3.23 7 4.51 4.51 0 01-.4.47L188 163.65l-52.58-29.1c-13.16-7.27-17.62-20.12-9.93-28.6a19.57 19.57 0 014.32-3.45 27.83 27.83 0 0112.62-3.5 39.46 39.46 0 0121 4.81l4.77 2.63 2.8-3.06a16 16 0 012.18-2s0-.05.08-.05a22.71 22.71 0 018.17-3.91c8.27-2.23 18.72-1 27.44 3.78 5.92 3.29 10.08 7.67 12.16 12.31a12.91 12.91 0 01.63 1.55 16.73 16.73 0 01.92 5.42 12 12 0 01-.18 1.87z"/><path class="cls-2" d="M276.34 165.25a.57.57 0 01-.1.13c-.15-.3-.33-.6-.5-.9.2.25.4.52.6.77zM222.55 120.47a12 12 0 01-.15 1.88 13.86 13.86 0 01-3.23 7 4.51 4.51 0 01-.4.47L188 163.65l-52.58-29.1c-13.16-7.27-17.62-20.12-9.93-28.6a19.57 19.57 0 014.32-3.45 27.83 27.83 0 0112.62-3.5 39.46 39.46 0 0121 4.81l4.77 2.63 2.8-3.06a16 16 0 012.18-2s0-.05.08-.05a22.71 22.71 0 018.17-3.91c8.27-2.23 18.72-1 27.44 3.78 5.92 3.29 10.08 7.67 12.16 12.31a12.91 12.91 0 01.63 1.55 16.73 16.73 0 01.89 5.41z"/></g></g></svg>