<svg viewBox="0 0 326.08 313.09" xmlns="http://www.w3.org/2000/svg"><path d="m293 195.81a108.83 108.83 0 0 0 -14.23-27.27l-.23 1.12-7 35.54c-4.26 33.94-37.89 59.95-87 62.76-62.58 3.56-126.67-31.88-143.09-79.17-6-17.35-4.81-33.89 2.26-48l.15-.3 14.56-31.36 1.28-2.75c-47 19.19-70.48 60.32-54.66 105.86 20.87 60.08 102.28 105.09 181.8 100.55s126.97-56.93 106.16-116.98z" fill="#0c1424"/><path d="m282.68 148.56-4 20-.23 1.12-7 35.54c-4.26 33.94-37.89 59.95-87 62.76-62.58 3.56-126.67-31.88-143.09-79.17-6-17.35-4.81-33.89 2.26-48l.15-.3 14.56-31.36 1.28-2.75 9-19.28a53.7 53.7 0 0 0 -4.21 17.45 7.82 7.82 0 0 0 -.07 1.1 58 58 0 0 0 .42 10.73 67.41 67.41 0 0 0 3.11 12.83c15.39 44.28 75.39 77.47 134 74.13 28.92-1.65 52.1-11.88 66.31-27.14a57.18 57.18 0 0 0 8.1-10.8.57.57 0 0 0 .1-.13 54.79 54.79 0 0 0 6.31-16.73zm41.17 3.32-11.85 11.88-11.88-11.88a7.64 7.64 0 0 1 10.8-10.81l1.08 1.08 1.08-1.08a7.66 7.66 0 0 1 10.8 0 7.67 7.67 0 0 1 0 10.81zm-43.91-129.49-20.42 20.42-20.41-20.42a13.12 13.12 0 0 1 18.56-18.56l1.85 1.85 1.86-1.85a13.16 13.16 0 0 1 18.56 0 13.16 13.16 0 0 1 0 18.56zm-244.49 38.2-16.2 16.21-16.25-16.21a10.42 10.42 0 0 1 14.78-14.74l1.47 1.47 1.47-1.47a10.45 10.45 0 0 1 14.73 0 10.45 10.45 0 0 1 0 14.74z" fill="#f4812e"/><path d="m282.9 180.14a86.59 86.59 0 0 0 -4.41-10.48l-7 35.54c-4.26 33.94-37.89 59.95-87 62.76-62.58 3.56-126.67-31.88-143.09-79.17-6-17.35-4.81-33.89 2.26-48l.15-.3 14.56-31.36c-30.32 19.2-43.88 51-31.83 85.67 18.57 53.48 91.05 93.58 161.86 89.55s113.08-50.7 94.5-104.21z" fill="#767676"/><path d="m276.34 165.25a.57.57 0 0 1 -.1.13c-.15-.3-.33-.6-.5-.9.2.25.4.52.6.77z" fill="#ffb400"/><path d="m280.15 117.06c-15.39-44.29-75.39-77.47-134-74.14-37.27 2.13-65 18.5-76.34 41.53l-1.23 2.63a53.7 53.7 0 0 0 -4.21 17.45 7.82 7.82 0 0 0 -.07 1.1 58 58 0 0 0 .42 10.73 67.41 67.41 0 0 0 3.11 12.83c15.39 44.28 75.39 77.47 134 74.13 28.92-1.65 52.1-11.88 66.31-27.14a57.18 57.18 0 0 0 8.1-10.8.57.57 0 0 0 .1-.13 54.79 54.79 0 0 0 6.34-16.69c0-.05.05-.1 0-.15a59.06 59.06 0 0 0 -2.53-31.35zm-57.75 5.29a13.86 13.86 0 0 1 -3.23 7 4.51 4.51 0 0 1 -.4.47l-30.77 33.83-52.58-29.1c-13.16-7.27-17.62-20.12-9.93-28.6a19.57 19.57 0 0 1 4.32-3.45 27.83 27.83 0 0 1 12.62-3.5 39.46 39.46 0 0 1 21 4.81l4.77 2.63 2.8-3.06a16 16 0 0 1 2.18-2s0-.05.08-.05a22.71 22.71 0 0 1 8.17-3.91c8.27-2.23 18.72-1 27.44 3.78 5.92 3.29 10.08 7.67 12.16 12.31a12.91 12.91 0 0 1 .63 1.55 16.73 16.73 0 0 1 .92 5.42 12 12 0 0 1 -.18 1.87z" fill="#ffb400"/><path d="m276.34 165.25a.57.57 0 0 1 -.1.13c-.15-.3-.33-.6-.5-.9.2.25.4.52.6.77zm-53.79-44.78a12 12 0 0 1 -.15 1.88 13.86 13.86 0 0 1 -3.23 7 4.51 4.51 0 0 1 -.4.47l-30.77 33.83-52.58-29.1c-13.16-7.27-17.62-20.12-9.93-28.6a19.57 19.57 0 0 1 4.32-3.45 27.83 27.83 0 0 1 12.62-3.5 39.46 39.46 0 0 1 21 4.81l4.77 2.63 2.8-3.06a16 16 0 0 1 2.18-2s0-.05.08-.05a22.71 22.71 0 0 1 8.17-3.91c8.27-2.23 18.72-1 27.44 3.78 5.92 3.29 10.08 7.67 12.16 12.31a12.91 12.91 0 0 1 .63 1.55 16.73 16.73 0 0 1 .89 5.41z" fill="#f4812e"/></svg>