<svg xmlns="http://www.w3.org/2000/svg" viewBox="0 0 310.32 321.32"><defs><style>.cls-1{fill:#47bdaf}.cls-2{fill:#87fdef}</style></defs><g id="Layer_2" data-name="Layer 2"><g id="connect"><path class="cls-1" d="M77 263.7a9.33 9.33 0 00-6.59-2.7H52.06a3.91 3.91 0 01-3.9-3.9V191h-.06a37.59 37.59 0 01-18.66.78v65.25a22.63 22.63 0 0022.63 22.63h18.34a9.36 9.36 0 006.62-16zM255.43 31.07h-33.08a9.36 9.36 0 100 18.72h33.08a3.91 3.91 0 013.9 3.9v65.77h18.72V53.7a22.62 22.62 0 00-22.62-22.63zm-203.37 0A22.63 22.63 0 0029.44 53.7v31.94a9.36 9.36 0 1018.72 0V53.7a3.91 3.91 0 013.9-3.91h62.36V31.07zm216.63 184.28a9.35 9.35 0 00-9.36 9.36v32.34a3.93 3.93 0 01-3.92 3.91h-60.94l6.11 6.11a5.35 5.35 0 010 7.57l-5 5h59.89a22.62 22.62 0 0022.62-22.62v-32.31a9.36 9.36 0 00-9.4-9.36zM151.35 206.52a2.22 2.22 0 00-2.23 2.22v10.8a2.22 2.22 0 00.41 1.29 5.36 5.36 0 013.76-.2 2.11 2.11 0 00.29-1.09v-10.8a2.22 2.22 0 00-2.23-2.22zm0-19.44a2.22 2.22 0 00-2.23 2.22v10.8a2.23 2.23 0 004.46 0v-10.8a2.22 2.22 0 00-2.23-2.22zm0-19.44a2.23 2.23 0 00-2.23 2.23v10.79a2.23 2.23 0 104.46 0v-10.79a2.23 2.23 0 00-2.23-2.23zm0-38.88a2.23 2.23 0 00-2.23 2.23v10.8a2.23 2.23 0 004.46 0V131a2.23 2.23 0 00-2.23-2.24zm0-19.44a2.23 2.23 0 00-2.23 2.23v10.8a2.23 2.23 0 004.46 0v-10.8a2.23 2.23 0 00-2.23-2.23zm0-19.44a2.23 2.23 0 00-2.23 2.23v10.8a2.23 2.23 0 004.46 0v-10.8a2.23 2.23 0 00-2.23-2.23zm-2.23-15.37v9a2.23 2.23 0 004.46 0v-9zM248.49 158l-.74-1.27-1.75-3.13h-3.46a2.23 2.23 0 100 4.45h6zm-14.58-4.38h-10.72a2.23 2.23 0 100 4.45h10.72a2.23 2.23 0 100-4.45zm-19.3 0h-10.72a2.23 2.23 0 100 4.45h10.72a2.23 2.23 0 100-4.45zm-19.3 0h-10.72a2.23 2.23 0 100 4.45h10.72a2.23 2.23 0 100-4.45zm-19.3 0h-10.72a2.23 2.23 0 100 4.45H176a2.23 2.23 0 100-4.45zm-38.6 0h-10.72a2.23 2.23 0 000 4.45h10.72a2.23 2.23 0 100-4.45zm-19.29 0h-10.73a2.23 2.23 0 000 4.45h10.73a2.23 2.23 0 000-4.45zm-19.3 0H88.1a2.23 2.23 0 100 4.45h10.72a2.23 2.23 0 000-4.45zm-19.3 0h-5v1.77c0 .9 0 1.79-.1 2.68h5.11a2.23 2.23 0 100-4.45zM158.94 155.83a2.22 2.22 0 01-2.23 2.22h-3.13v3.18a2.23 2.23 0 01-4.46 0v-3.18H146a2.23 2.23 0 110-4.45h3.13v-3.17a2.23 2.23 0 114.46 0v3.17h3.13a2.23 2.23 0 012.22 2.23z"/><rect class="cls-2" x="114.42" width="74.51" height="74.51" rx="5.67"/><path class="cls-2" d="M200.58 274.64l-5 5-.61.61-39.47 39.46a5.34 5.34 0 01-7.57 0L116.13 288l-13.36-13.36a5.37 5.37 0 010-7.57L147.89 222a5.35 5.35 0 015.4-1.32 5.28 5.28 0 012.17 1.32l45.12 45.12a5.35 5.35 0 010 7.52zM74.51 155.37c0 .9 0 1.79-.1 2.68A37.27 37.27 0 0148.16 191h-.06a37.59 37.59 0 01-18.66.78h-.21a37.26 37.26 0 01-19.68-61.31c.44-.49.9-1 1.36-1.44a37.26 37.26 0 0152.69 0c.46.47.92.95 1.36 1.44a37.11 37.11 0 019.51 23.13c.03.59.04 1.18.04 1.77zM310 123.47l-19.19 33.24L290 158l-12 20.75-6.42 11.25a2.67 2.67 0 01-4.63 0l-7.62-13.2-10.8-18.7v-.07l-.74-1.27-1.79-3.16-17.4-30.13a2.68 2.68 0 012.32-4h76.78a2.67 2.67 0 012.3 4z"/></g></g></svg>