<svg xmlns="http://www.w3.org/2000/svg" viewBox="0 0 318.44 327.39"><defs><style>.cls-1{fill:#991f2e}.cls-2{fill:#ff8d9b}</style></defs><g id="Layer_2" data-name="Layer 2"><g id="inspireer"><path class="cls-1" d="M243.83 148l-42.91 59.65a1.13 1.13 0 01-1.58.23 1.12 1.12 0 01-.45-1.13L210 157.47l-23.93.76a1.86 1.86 0 01-2-1.7 1.83 1.83 0 01.35-1.29l43.88-59.71c.14 0 .29-.09.44-.12 1.27-.31 2.57-.59 3.89-.86l-8.11 47.58 16.89 1.08a3 3 0 012.45 4.79zM239.91 265.41a3.15 3.15 0 00-2 3.15c.58 8.24 1.94 36.7-5.1 54.16a3.16 3.16 0 01-2.49 2L212 327.35a3.12 3.12 0 01-3.5-3.81c2.56-11 7.4-40.54-6.19-67.14 1.08-.43 2.09-.91 3-1.39a27.86 27.86 0 0011-10 85.6 85.6 0 0052.83-16.89A102.11 102.11 0 00287.27 211a47.46 47.46 0 008.53-15.51 51.41 51.41 0 002.2-22.77c-.33-2.48-.76-4.95-1.27-7.37q11.58-12.53 17-24.77c7.81 73.95-6.38 98.42-73.82 124.83z"/><path class="cls-2" d="M317.85 112.3a45.16 45.16 0 00-4.2-13l-2.81-4.94A62.42 62.42 0 00297.64 80a70.48 70.48 0 00-7.19-5.14 78 78 0 00-2-9.27 62.58 62.58 0 00-1.08-3.35l-11.88 16.44a.42.42 0 01-.6.08.43.43 0 01-.16-.42l4.2-18.65-9.05.28a.7.7 0 01-.77-.65.67.67 0 01.13-.49l9.24-12.58A58.73 58.73 0 00267 35.76c-16.91-11.95-36.65-11.67-45.68-9.41l-.5.1a.44.44 0 00-.15.05 121 121 0 00-34 17.49c-28 20.51-45.69 50.9-52.58 90.31a8.74 8.74 0 01-9.73 7.18 2.28 2.28 0 01-.39-.06c-4.76-.83-8.46-5.48-7.12-10.12 13.93-48 33.39-68.24 55.56-84.23a139.17 139.17 0 0147.41-21.71c-.09-.1-.16-.19-.25-.28a95.5 95.5 0 00-12-12.51c-10.4-8.93-21-13.11-31.7-12.51-12.81.75-23 8.37-30 15.74-5.72.5-9.5 2.09-11.91 3.7a11.13 11.13 0 00-3.96 3.89 90.2 90.2 0 00-12.52-2.46c-.84-.1-1.67-.19-2.49-.25l-.46 2.71 6.07.4a1.05 1.05 0 011.08 1.08 1.2 1.2 0 01-.19.64L106.1 47a.43.43 0 01-.58.09.44.44 0 01-.15-.42l4-17.71-8.62.27a.66.66 0 01-.72-.61.63.63 0 01.12-.46l5.55-7.55a41.78 41.78 0 00-22.44 7.67 40.84 40.84 0 00-12.12 14.41 52.52 52.52 0 00-4.47 12.58 43.4 43.4 0 00-9.14.37 37.56 37.56 0 00-16 6.11 29.54 29.54 0 00-2.82 2.14 36.74 36.74 0 00-3.2 3l-3.36 19.36 13.41.86A2.36 2.36 0 0148 89.48a2.41 2.41 0 01-.43 1.36l-34.15 46.48a.92.92 0 01-1.26.18.85.85 0 01-.34-.88l7.43-32.31c-11.1 9.56-16.9 20.3-17.36 32-.53 14 6.94 25.16 11.41 30.52A52.52 52.52 0 0025.76 219c9.13 9.34 20.52 14 31.89 13.63l28.65-39a1 1 0 011.35-.15 1 1 0 01.37.86l-5.12 30 10.62.69a1.89 1.89 0 011.9 1.91 2 2 0 01-.36 1.09l-11.44 15.9c12.29 12.57 29 19.05 49.38 19a116.9 116.9 0 0038.12-7 65.47 65.47 0 006.83 1.79c10.43 2.16 18.39 1 24.28-1.36 1.08-.43 2.09-.91 3-1.39a27.86 27.86 0 0011-10 85.6 85.6 0 0052.83-16.89A102.11 102.11 0 00287.27 211a47.46 47.46 0 008.53-15.51 51.41 51.41 0 002.2-22.77c-.33-2.48-.76-4.95-1.27-7.37q11.58-12.53 17-24.77a56.4 56.4 0 002.85-7.89 46.64 46.64 0 001.27-20.39zm-74 35.7l-42.91 59.65a1.13 1.13 0 01-1.58.23 1.12 1.12 0 01-.45-1.13L210 157.47l-23.93.76a1.86 1.86 0 01-2-1.7 1.83 1.83 0 01.35-1.29l43.88-59.71 1.64-2.25a1.52 1.52 0 012.14-.22 1.53 1.53 0 01.58 1.35v.14l-8.11 47.58 16.89 1.08a3 3 0 012.45 4.79z"/><path class="cls-2" d="M244.4 146.26a3 3 0 01-.57 1.74l-42.91 59.65a1.13 1.13 0 01-1.58.23 1.12 1.12 0 01-.45-1.13L210 157.47l-23.93.76a1.86 1.86 0 01-2-1.7 1.83 1.83 0 01.35-1.29l43.88-59.71 1.64-2.25a1.52 1.52 0 012.14-.22 1.53 1.53 0 01.58 1.35v.14l-8.11 47.58 16.89 1.08a3 3 0 012.96 3.05z"/><path class="cls-1" d="M292 55.43a1.18 1.18 0 01-.21.66l-4.4 6.1-11.9 16.49a.42.42 0 01-.6.08.43.43 0 01-.16-.42l4.2-18.65-9.05.28a.7.7 0 01-.77-.65.67.67 0 01.13-.49l9.24-12.58 8-10.87a.58.58 0 01.81-.09.58.58 0 01.22.52l-3.08 18.06 6.4.42a1.13 1.13 0 011.17 1.14zM95.43 227a2 2 0 01-.36 1.09l-11.44 15.9-15.56 21.6a.72.72 0 01-1.28-.58l7-31-15.06.47a1.17 1.17 0 01-1.29-1.06 1.22 1.22 0 01.21-.8l28.65-39a1 1 0 011.35-.15 1 1 0 01.37.86l-5.12 30 10.62.69a1.89 1.89 0 011.91 1.98zM244.4 146.26a3 3 0 01-.57 1.74l-42.91 59.65a1.13 1.13 0 01-1.58.23 1.12 1.12 0 01-.45-1.13L210 157.47l-23.93.76a1.86 1.86 0 01-2-1.7 1.83 1.83 0 01.35-1.29l43.88-59.71 1.64-2.25a1.52 1.52 0 012.14-.22 1.53 1.53 0 01.58 1.35v.14l-8.11 47.58 16.89 1.08a3 3 0 012.96 3.05zM48 89.48a2.41 2.41 0 01-.43 1.36l-34.15 46.48a.92.92 0 01-1.26.18.85.85 0 01-.34-.88l7.43-32.31 1.39-6.09-19 .6A1.48 1.48 0 010 97.48a1.37 1.37 0 01.28-1l36.18-48.29a1.22 1.22 0 011.7-.18 1.25 1.25 0 01.46 1.07l-3.11 17.85-3.36 19.32 13.41.86A2.36 2.36 0 0148 89.48zM121.72 24.87a1.2 1.2 0 01-.19.64L106.1 47a.43.43 0 01-.58.09.44.44 0 01-.15-.42l4-17.71-8.62.27a.66.66 0 01-.72-.61.63.63 0 01.12-.46l5.55-7.55 10.81-14.78a.55.55 0 01.77-.08.53.53 0 01.21.49L115 20.68l-.46 2.71 6.07.4a1.05 1.05 0 011.11 1.08z"/></g></g></svg>