<svg xmlns="http://www.w3.org/2000/svg" viewBox="0 0 252.02 284.95"><defs><style>.cls-1{fill:#0c1424}.cls-2{fill:#ffb400}.cls-3{fill:#f6fafb}.cls-4{fill:#f4812e}</style></defs><g id="Layer_2" data-name="Layer 2"><g id="lamp"><rect class="cls-1" x="92.56" y="220.31" width="66.48" height="19.08" rx="5.77"/><rect class="cls-1" x="92.56" y="241.38" width="66.48" height="19.08" rx="5.77"/><path class="cls-1" d="M148.3 262.45a22.5 22.5 0 11-45 0z"/><path class="cls-2" d="M198.49 123.24v-.21.21C197.47 44.69 125.81 47 125.81 47s-71.67-2.32-72.68 76.23v.16-.16c-.23 3.49.32 19.17 19.36 48.59a61.05 61.05 0 013.9 7c3.16 6.55 6.9 16.74 7.5 32.95a4.89 4.89 0 004.89 4.69h74.06a4.87 4.87 0 004.87-4.69c.62-16.21 4.36-26.4 7.51-32.95a61.13 61.13 0 013.91-7c19.03-29.41 19.57-45.09 19.36-48.58zm-72.68 27.82a.78.78 0 010 1.05.77.77 0 010-1.05z"/><path class="cls-2" d="M125.81 152.11a.77.77 0 010-1.05.78.78 0 010 1.05z"/><rect class="cls-3" x="90.9" y="100.18" width="27.07" height="53.08" rx="13.53"/><path class="cls-1" d="M111.53 128.18l-3.6 1.65a.45.45 0 00-.25.24l-2.7 6.85a.64.64 0 01-1.09 0l-2.7-6.85a.45.45 0 00-.25-.24l-3.6-1.65a.38.38 0 010-.73l3.6-1.64a.51.51 0 00.25-.25l2.7-6.85a.64.64 0 011.09 0l2.7 6.85a.51.51 0 00.25.25l3.6 1.64a.38.38 0 010 .73z"/><rect class="cls-3" x="133.64" y="100.18" width="27.07" height="53.08" rx="13.53"/><path class="cls-1" d="M154.27 128.18l-3.6 1.65a.45.45 0 00-.25.24l-2.7 6.85a.64.64 0 01-1.09 0l-2.7-6.85a.45.45 0 00-.25-.24l-3.6-1.65a.38.38 0 010-.73l3.6-1.64a.51.51 0 00.25-.25l2.7-6.85a.64.64 0 011.09 0l2.7 6.85a.51.51 0 00.25.25l3.6 1.64a.38.38 0 010 .73z"/><path class="cls-3" d="M146.57 180.51c-.32.26-8.1 6.31-20.76 6.31s-20.45-6-20.77-6.31a4.87 4.87 0 016-7.66c.28.22 5.67 4.22 14.74 4.22s14.65-4.16 14.7-4.2a4.88 4.88 0 116.06 7.64z"/><ellipse class="cls-4" cx="161.68" cy="165.61" rx="10.97" ry="6.27" transform="rotate(-67.65 161.688 165.616)"/><ellipse class="cls-4" cx="89.93" cy="165.61" rx="6.27" ry="10.97" transform="rotate(-22.35 89.91 165.607)"/><path class="cls-2" d="M125.81 152.11a.77.77 0 010-1.05.78.78 0 010 1.05z"/><path class="cls-2" d="M125.81 152.11a.77.77 0 010-1.05.78.78 0 010 1.05z"/><path class="cls-4" d="M208.11 169.67l-17.19 15.83a.51.51 0 00.4.88l7.91-.8a.51.51 0 01.41.87l-7.14 7a.52.52 0 00.63.81l18.64-11.52a.51.51 0 00-.16-.93l-6.79-1.56a.51.51 0 01-.34-.72l4.44-9.26a.51.51 0 00-.81-.6zM29.15 178.12l15.55 11.22a.43.43 0 00.67-.41l-.59-4.2a.42.42 0 01.61-.44l12.13 6.34A.43.43 0 0058 190l-18.74-19.29a.42.42 0 00-.73.3v7.36a.42.42 0 01-.49.42l-8.61-1.43a.42.42 0 00-.28.76zM10.4 87.62l18.29 22.27a.64.64 0 01-.54 1l-6.37-.49a.64.64 0 00-.59 1L31.83 129a.64.64 0 01-1 .81L.22 103.48a.64.64 0 01.38-1.12l11.05-.63a.65.65 0 00.59-.79l-3-12.77a.64.64 0 011.16-.55zM212.6.38l-17.27 29.44a.76.76 0 00.83 1.12l7.35-1.75a.76.76 0 01.88 1l-9.19 22.57a.76.76 0 001.28.78l31-36.49a.76.76 0 00-.65-1.25l-13 1.32a.76.76 0 01-.83-.81l1-15.5a.75.75 0 00-1.4-.43zM41.88.38l17.27 29.44a.76.76 0 01-.83 1.12L51 29.19a.75.75 0 00-.87 1l9.19 22.55a.76.76 0 01-1.28.78L27 17.05a.76.76 0 01.66-1.25l13 1.32a.76.76 0 00.83-.81L40.47.81a.76.76 0 011.41-.43zM239.33 86.73l-14.58 24.86a.64.64 0 00.7 1l6.21-1.49a.64.64 0 01.74.86L224.64 131a.64.64 0 001.08.65l26.15-30.81a.64.64 0 00-.56-1l-11 1.11a.64.64 0 01-.7-.68l.92-13.08a.64.64 0 00-1.2-.46zM133.64 90.93s14.18-17.52 31.69 0zM87.46 90.93s14.18-17.52 31.7 0z"/></g></g></svg>