<svg viewBox="0 0 469.1 501.49" xmlns="http://www.w3.org/2000/svg"><path d="m41.96 27.98h101.71v.58h-101.71z" fill="#ffb400"/><path d="m41.96 71.18h101.71v359.13h-101.71z" fill="#afb6cd"/><path d="m158.92 61a10.17 10.17 0 0 1 -10.17 10.17h-111.87a10.17 10.17 0 0 1 -3.37-19.76h118.62a10.16 10.16 0 0 1 6.79 9.59z" fill="#8a90a6"/><path d="m169 39.7a11.71 11.71 0 0 1 -11.72 11.72h-128.93a11.72 11.72 0 0 1 -3.63-22.86h136.2a11.72 11.72 0 0 1 8.08 11.14z" fill="#afb6cd"/><path d="m185.63 14.28a14.27 14.27 0 0 1 -14.28 14.28h-157.07a14.28 14.28 0 0 1 0-28.56h157.07a14.28 14.28 0 0 1 14.28 14.28zm-26.71 426.2a10.16 10.16 0 0 1 -6.79 9.59h-118.62a10.17 10.17 0 0 1 3.37-19.76h111.87a10.17 10.17 0 0 1 10.17 10.17z" fill="#8a90a6"/><path d="m169 461.79a11.72 11.72 0 0 1 -8.08 11.14h-136.2a11.72 11.72 0 0 1 3.63-22.86h128.93a11.72 11.72 0 0 1 11.72 11.72z" fill="#afb6cd"/><g fill="#8a90a6"><path d="m185.63 487.21a14.28 14.28 0 0 1 -14.28 14.28h-157.07a14.28 14.28 0 1 1 0-28.56h157.07a14.28 14.28 0 0 1 14.28 14.28z"/><rect height="310.47" rx="11.6" width="23.2" x="50.47" y="95.51"/><rect height="310.47" rx="11.6" width="23.2" x="80.96" y="95.51"/><rect height="310.47" rx="11.6" width="23.2" x="111.97" y="95.51"/></g><path d="m251.63 182.2h68.15v.39h-68.15z" fill="#ffb400"/><path d="m251.63 211.14h68.15v240.62h-68.15z" fill="#afb6cd"/><path d="m330 204.33a6.81 6.81 0 0 1 -6.82 6.81h-75a6.81 6.81 0 0 1 -2.18-13.24h79.48a6.82 6.82 0 0 1 4.52 6.43z" fill="#8a90a6"/><path d="m336.74 190.05a7.85 7.85 0 0 1 -7.85 7.85h-86.38a7.85 7.85 0 0 1 -2.44-15.31h91.26a7.85 7.85 0 0 1 5.41 7.46z" fill="#afb6cd"/><path d="m347.88 173a9.56 9.56 0 0 1 -9.56 9.57h-105.24a9.57 9.57 0 0 1 0-19.14h105.24a9.56 9.56 0 0 1 9.56 9.57zm-17.88 285.57a6.82 6.82 0 0 1 -4.55 6.43h-79.45a6.81 6.81 0 0 1 2.26-13.24h75a6.81 6.81 0 0 1 6.74 6.81z" fill="#8a90a6"/><path d="m336.74 472.85a7.85 7.85 0 0 1 -5.41 7.46h-91.26a7.85 7.85 0 0 1 2.44-15.31h86.38a7.85 7.85 0 0 1 7.85 7.85z" fill="#afb6cd"/><path d="m347.88 489.88a9.57 9.57 0 0 1 -9.56 9.57h-105.24a9.57 9.57 0 1 1 0-19.14h105.24a9.56 9.56 0 0 1 9.56 9.57z" fill="#8a90a6"/><rect fill="#8a90a6" height="208.02" rx="7.77" width="15.54" x="257.33" y="227.44"/><rect fill="#8a90a6" height="208.02" rx="7.77" width="15.54" x="277.75" y="227.44"/><rect fill="#8a90a6" height="208.02" rx="7.77" width="15.54" x="298.53" y="227.44"/><path d="m404.6 288.93h45.66v.26h-45.66z" fill="#ffb400"/><path d="m404.6 308.32h45.66v161.21h-45.66z" fill="#afb6cd"/><path d="m457.11 303.76a4.58 4.58 0 0 1 -4.57 4.56h-50.22a4.56 4.56 0 0 1 -1.51-8.87h53.25a4.57 4.57 0 0 1 3.05 4.31z" fill="#8a90a6"/><path d="m461.63 294.19a5.26 5.26 0 0 1 -5.26 5.26h-57.88a5.26 5.26 0 0 1 -1.63-10.26h61.14a5.26 5.26 0 0 1 3.63 5z" fill="#afb6cd"/><path d="m469.1 282.78a6.42 6.42 0 0 1 -6.41 6.41h-70.51a6.41 6.41 0 1 1 0-12.82h70.51a6.41 6.41 0 0 1 6.41 6.41zm-11.99 191.32a4.57 4.57 0 0 1 -3.05 4.31h-53.25a4.56 4.56 0 0 1 1.51-8.87h50.22a4.57 4.57 0 0 1 4.57 4.56z" fill="#8a90a6"/><path d="m461.63 483.67a5.26 5.26 0 0 1 -3.63 5h-61.14a5.26 5.26 0 0 1 1.63-10.26h57.88a5.26 5.26 0 0 1 5.26 5.26z" fill="#afb6cd"/><path d="m469.1 495.08a6.41 6.41 0 0 1 -6.41 6.41h-70.51a6.41 6.41 0 1 1 0-12.82h70.51a6.41 6.41 0 0 1 6.41 6.41z" fill="#8a90a6"/><rect fill="#8a90a6" height="139.37" rx="5.21" width="10.41" x="408.42" y="319.24"/><rect fill="#8a90a6" height="139.37" rx="5.21" width="10.41" x="422.11" y="319.24"/><rect fill="#8a90a6" height="139.37" rx="5.21" width="10.41" x="436.03" y="319.24"/></svg>