<svg xmlns="http://www.w3.org/2000/svg" viewBox="0 0 469.1 501.49"><defs><style>.cls-1{fill:#ffb400}.cls-2{fill:#afb6cd}.cls-3{fill:#8a90a6}</style></defs><g id="Layer_2" data-name="Layer 2"><g id="ondersteun"><path class="cls-1" d="M41.96 27.98h101.71v.58H41.96z"/><path class="cls-2" d="M41.96 71.18h101.71v359.13H41.96z"/><path class="cls-3" d="M158.92 61a10.17 10.17 0 01-10.17 10.17H36.88a10.17 10.17 0 01-3.37-19.76h118.62a10.16 10.16 0 016.79 9.59z"/><path class="cls-2" d="M169 39.7a11.71 11.71 0 01-11.72 11.72H28.35a11.72 11.72 0 01-3.63-22.86h136.2A11.72 11.72 0 01169 39.7z"/><path class="cls-3" d="M185.63 14.28a14.27 14.27 0 01-14.28 14.28H14.28a14.28 14.28 0 010-28.56h157.07a14.28 14.28 0 0114.28 14.28zM158.92 440.48a10.16 10.16 0 01-6.79 9.59H33.51a10.17 10.17 0 013.37-19.76h111.87a10.17 10.17 0 0110.17 10.17z"/><path class="cls-2" d="M169 461.79a11.72 11.72 0 01-8.08 11.14H24.72a11.72 11.72 0 013.63-22.86h128.93A11.72 11.72 0 01169 461.79z"/><path class="cls-3" d="M185.63 487.21a14.28 14.28 0 01-14.28 14.28H14.28a14.28 14.28 0 110-28.56h157.07a14.28 14.28 0 0114.28 14.28z"/><rect class="cls-3" x="50.47" y="95.51" width="23.2" height="310.47" rx="11.6"/><rect class="cls-3" x="80.96" y="95.51" width="23.2" height="310.47" rx="11.6"/><rect class="cls-3" x="111.97" y="95.51" width="23.2" height="310.47" rx="11.6"/><path class="cls-1" d="M251.63 182.2h68.15v.39h-68.15z"/><path class="cls-2" d="M251.63 211.14h68.15v240.62h-68.15z"/><path class="cls-3" d="M330 204.33a6.81 6.81 0 01-6.82 6.81h-75A6.81 6.81 0 01246 197.9h79.48a6.82 6.82 0 014.52 6.43z"/><path class="cls-2" d="M336.74 190.05a7.85 7.85 0 01-7.85 7.85h-86.38a7.85 7.85 0 01-2.44-15.31h91.26a7.85 7.85 0 015.41 7.46z"/><path class="cls-3" d="M347.88 173a9.56 9.56 0 01-9.56 9.57H233.08a9.57 9.57 0 010-19.14h105.24a9.56 9.56 0 019.56 9.57zM330 458.57a6.82 6.82 0 01-4.55 6.43H246a6.81 6.81 0 012.26-13.24h75a6.81 6.81 0 016.74 6.81z"/><path class="cls-2" d="M336.74 472.85a7.85 7.85 0 01-5.41 7.46h-91.26a7.85 7.85 0 012.44-15.31h86.38a7.85 7.85 0 017.85 7.85z"/><path class="cls-3" d="M347.88 489.88a9.57 9.57 0 01-9.56 9.57H233.08a9.57 9.57 0 110-19.14h105.24a9.56 9.56 0 019.56 9.57z"/><rect class="cls-3" x="257.33" y="227.44" width="15.54" height="208.02" rx="7.77"/><rect class="cls-3" x="277.75" y="227.44" width="15.54" height="208.02" rx="7.77"/><rect class="cls-3" x="298.53" y="227.44" width="15.54" height="208.02" rx="7.77"/><path class="cls-1" d="M404.6 288.93h45.66v.26H404.6z"/><path class="cls-2" d="M404.6 308.32h45.66v161.21H404.6z"/><path class="cls-3" d="M457.11 303.76a4.58 4.58 0 01-4.57 4.56h-50.22a4.56 4.56 0 01-1.51-8.87h53.25a4.57 4.57 0 013.05 4.31z"/><path class="cls-2" d="M461.63 294.19a5.26 5.26 0 01-5.26 5.26h-57.88a5.26 5.26 0 01-1.63-10.26H458a5.26 5.26 0 013.63 5z"/><path class="cls-3" d="M469.1 282.78a6.42 6.42 0 01-6.41 6.41h-70.51a6.41 6.41 0 110-12.82h70.51a6.41 6.41 0 016.41 6.41zM457.11 474.1a4.57 4.57 0 01-3.05 4.31h-53.25a4.56 4.56 0 011.51-8.87h50.22a4.57 4.57 0 014.57 4.56z"/><path class="cls-2" d="M461.63 483.67a5.26 5.26 0 01-3.63 5h-61.14a5.26 5.26 0 011.63-10.26h57.88a5.26 5.26 0 015.26 5.26z"/><path class="cls-3" d="M469.1 495.08a6.41 6.41 0 01-6.41 6.41h-70.51a6.41 6.41 0 110-12.82h70.51a6.41 6.41 0 016.41 6.41z"/><rect class="cls-3" x="408.42" y="319.24" width="10.41" height="139.37" rx="5.21"/><rect class="cls-3" x="422.11" y="319.24" width="10.41" height="139.37" rx="5.21"/><rect class="cls-3" x="436.03" y="319.24" width="10.41" height="139.37" rx="5.21"/></g></g></svg>