<svg xmlns="http://www.w3.org/2000/svg" viewBox="0 0 388.65 355.13"><defs><style>.cls-1{fill:#ffed00}.cls-2{fill:#0c1424}.cls-3{fill:#54bbab}</style></defs><g id="Layer_2" data-name="Layer 2"><g id="project"><path class="cls-1" d="M377.48 9.35A34.84 34.84 0 00353.68 0h-53a11.34 11.34 0 100 22.68h22.41v1.84h-32.78a11.34 11.34 0 100 22.67h32.81V49h-43.21a11.34 11.34 0 100 22.67H343v15.46a11.34 11.34 0 1022.67 0V69.61a35 35 0 0023-32.87V35a34.88 34.88 0 00-11.19-25.65zm-70.91 7.32a2.19 2.19 0 01-2.19 2.19h-3.17a7.53 7.53 0 110-15h3.17A2.19 2.19 0 01306.57 6zm-10.93 24.52a2.2 2.2 0 01-2.2 2.19h-3.16a7.53 7.53 0 110-15.05h3.16a2.2 2.2 0 012.2 2.19zm-10.23 24.52a2.2 2.2 0 01-2.19 2.2h-3.16a7.53 7.53 0 110-15.06h3.16a2.19 2.19 0 012.19 2.2zm76.43 19.87a7.53 7.53 0 11-15 0v-3.17a2.19 2.19 0 012.16-2.19h10.67a2.19 2.19 0 012.19 2.19z"/><path class="cls-1" d="M306.57 6v10.67a2.19 2.19 0 01-2.19 2.19h-3.17a7.53 7.53 0 110-15h3.17A2.19 2.19 0 01306.57 6zM295.64 30.52v10.67a2.2 2.2 0 01-2.2 2.19h-3.16a7.53 7.53 0 110-15.05h3.16a2.2 2.2 0 012.2 2.19zM285.41 55.05v10.66a2.2 2.2 0 01-2.19 2.2h-3.16a7.53 7.53 0 110-15.06h3.16a2.19 2.19 0 012.19 2.2zM361.84 82.41v3.17a7.53 7.53 0 11-15 0v-3.17a2.19 2.19 0 012.16-2.19h10.67a2.19 2.19 0 012.17 2.19z"/><path class="cls-2" d="M306.57 6v10.67a2.19 2.19 0 01-2.19 2.19h-3.17a7.53 7.53 0 110-15h3.17A2.19 2.19 0 01306.57 6zM295.64 30.52v10.67a2.2 2.2 0 01-2.2 2.19h-3.16a7.53 7.53 0 110-15.05h3.16a2.2 2.2 0 012.2 2.19zM285.41 55.05v10.66a2.2 2.2 0 01-2.19 2.2h-3.16a7.53 7.53 0 110-15.06h3.16a2.19 2.19 0 012.19 2.2zM361.84 82.41v3.17a7.53 7.53 0 11-15 0v-3.17a2.19 2.19 0 012.16-2.19h10.67a2.19 2.19 0 012.17 2.19z"/><path class="cls-1" d="M18.87 267.69v3.16a2.19 2.19 0 01-2.2 2.2H6a2.2 2.2 0 01-2.2-2.2v-3.16a7.53 7.53 0 0115.06 0zM43.39 256.76v3.16a2.19 2.19 0 01-2.2 2.19H30.53a2.2 2.2 0 01-2.2-2.19v-3.16a7.53 7.53 0 0115.06 0zM67.91 246.53v3.17a2.19 2.19 0 01-2.19 2.19H55.05a2.2 2.2 0 01-2.2-2.19v-3.17a7.53 7.53 0 1115.06 0z"/><path class="cls-1" d="M95.15 312.77a11.31 11.31 0 00-8-3.32H71.72v-63.06a11.34 11.34 0 00-22.68 0v43.2H47.2v-32.8a11.34 11.34 0 00-22.68 0v32.8h-1.84v-22.4a11.34 11.34 0 00-22.68 0v53a34.86 34.86 0 009.33 23.78A34.91 34.91 0 0035 355.13h1.76a35 35 0 0032.88-23h17.49a11.34 11.34 0 008-19.36zm-76.28-41.92a2.19 2.19 0 01-2.2 2.2H6a2.2 2.2 0 01-2.2-2.2v-3.16a7.53 7.53 0 0115.06 0zm24.52-10.93a2.19 2.19 0 01-2.2 2.19H30.53a2.2 2.2 0 01-2.2-2.19v-3.16a7.53 7.53 0 0115.06 0zm24.52-10.22a2.19 2.19 0 01-2.19 2.19H55.05a2.2 2.2 0 01-2.2-2.19v-3.17a7.53 7.53 0 1115.06 0zm17.67 78.62h-3.16a2.2 2.2 0 01-2.2-2.19v-10.67a2.21 2.21 0 012.2-2.2h3.16a7.53 7.53 0 010 15.06z"/><path class="cls-1" d="M93.11 320.79a7.53 7.53 0 01-7.53 7.53h-3.16a2.2 2.2 0 01-2.2-2.19v-10.67a2.21 2.21 0 012.2-2.2h3.16a7.55 7.55 0 017.53 7.53z"/><path class="cls-2" d="M18.87 267.69v3.16a2.19 2.19 0 01-2.2 2.2H6a2.2 2.2 0 01-2.2-2.2v-3.16a7.53 7.53 0 0115.06 0zM43.39 256.76v3.16a2.19 2.19 0 01-2.2 2.19H30.53a2.2 2.2 0 01-2.2-2.19v-3.16a7.53 7.53 0 0115.06 0zM67.91 246.53v3.17a2.19 2.19 0 01-2.19 2.19H55.05a2.2 2.2 0 01-2.2-2.19v-3.17a7.53 7.53 0 1115.06 0zM93.11 320.79a7.53 7.53 0 01-7.53 7.53h-3.16a2.2 2.2 0 01-2.2-2.19v-10.67a2.21 2.21 0 012.2-2.2h3.16a7.55 7.55 0 017.53 7.53z"/><path class="cls-3" d="M299.7 286H290v-6.49h6.49V273h6.49v9.73a3.25 3.25 0 01-3.28 3.27zM271.66 286h-18.31v-6.49h18.31zM235 286h-18.27v-6.49H235zm-36.62 0h-18.27v-6.49h18.31zm-36.62 0h-18.27v-6.49h18.31zM125.18 286h-9.73a3.25 3.25 0 01-3.25-3.25V273h6.49v6.49h6.49zM118.69 254.68h-6.49v-18.31h6.49zm0-36.62h-6.49v-18.31h6.49zm0-36.62h-6.49v-18.31h6.49zm0-36.62h-6.49v-18.31h6.49zM118.69 108.2h-6.49v-9.73a3.24 3.24 0 013.25-3.24h9.73v6.48h-6.49zM271.66 101.71h-18.31v-6.48h18.31zm-36.62 0h-18.31v-6.48H235zm-36.62 0h-18.31v-6.48h18.31zm-36.62 0h-18.31v-6.48h18.31zM302.94 108.2h-6.49v-6.49H290v-6.48h9.74a3.24 3.24 0 013.24 3.24zM302.94 254.68h-6.49v-18.31h6.49zm0-36.62h-6.49v-18.31h6.49zm0-36.62h-6.49v-18.31h6.49zm0-36.62h-6.49v-18.31h6.49z"/></g></g></svg>