<svg xmlns="http://www.w3.org/2000/svg" viewBox="0 0 315.1 294.62"><defs><style>.cls-1{fill:#ffb400}.cls-2{fill:#0c1424}.cls-3{fill:#f4812e}</style></defs><g id="Layer_2" data-name="Layer 2"><g id="resources"><path class="cls-1" d="M285.07 293.26a39.8 39.8 0 01-10.42 1.36l-106-.26a40.18 40.18 0 01-9.5-1.16c9.2-2.69 17.84-9.9 21.31-26.34zM291.44 271.7a9.36 9.36 0 11-7.23-11.05 9.36 9.36 0 017.23 11.05zM255.71 157.53a34.8 34.8 0 11-34.8-35.18h.38a34.84 34.84 0 0134.42 35.18z"/><path class="cls-1" d="M297.72 37.83a43.7 43.7 0 01-6.46-5.41 23.85 23.85 0 01-3.3-4.23 12.54 12.54 0 01-2.06-6.28 3 3 0 00-.74-1.85 7.45 7.45 0 01-1.35.12l-123-.3a5.85 5.85 0 01-1.32-.12 2.93 2.93 0 00-.75 1.84 12.84 12.84 0 01-2.11 6.29 24 24 0 01-3.33 4.2 45 45 0 01-6.48 5.38c-15.47 10.7-17.54 32.85-17.54 32.85L129 182.58l13.66 3.92 15.54 3.28.94.19 1.74.36c12.94 2.88 33.16 12.08 27.05 41.08l107.35 18.19.91.18a22.4 22.4 0 0116.95 15.87 40.07 40.07 0 001.52-10.86l.44-184s-1.97-22.19-17.38-32.96zM250 186.87a41.29 41.29 0 01-29.06 11.86h-.47a41.58 41.58 0 01.45-83.16h.46a41.58 41.58 0 0128.62 71.3z"/><path class="cls-2" d="M287.78 19.2a8.16 8.16 0 01-2.62.86 7.45 7.45 0 01-1.35.12l-123-.3a6 6 0 01-1.33-.12 7 7 0 01-2.16-.66 8.38 8.38 0 01-4.92-7.67v-3A8.44 8.44 0 01160.86 0l123 .3a8.44 8.44 0 018.43 8.47v3a8.47 8.47 0 01-4.51 7.43z"/><path class="cls-3" d="M291.26 32.42l-138-.33a24 24 0 003.33-4.2 12.94 12.94 0 002.11-6.29 3 3 0 01.74-1.84 6 6 0 001.33.12l123 .3a7.45 7.45 0 001.35-.12 3 3 0 01.73 1.85 12.67 12.67 0 002.15 6.28 23.85 23.85 0 003.26 4.23zM285.86 45.13s19.44-.92 19.14 24.49z"/><path class="cls-1" d="M255.71 157.53a34.8 34.8 0 11-34.8-35.18h.38a34.84 34.84 0 0134.42 35.18z"/><path class="cls-3" d="M221.37 115.57h-.46a41.58 41.58 0 00-.45 83.16h.47a41.58 41.58 0 00.44-83.16zm-.84 76.37a34.8 34.8 0 01.38-69.59h.38a34.8 34.8 0 11-.76 69.59z"/><path class="cls-3" d="M230.19 163.46l3.13 3.09a11.78 11.78 0 01-4.59 3.26 16.21 16.21 0 01-12.16-.21 13.32 13.32 0 01-4.76-3.48 12.8 12.8 0 01-2.71-5.12h-4.34v-2.67h3.85v-1.3c0-.59 0-1 .06-1.29h-3.85v-2.67l4.35.05A12.54 12.54 0 01212 148a13.47 13.47 0 014.84-3.38 15.55 15.55 0 016.17-1.15 15.36 15.36 0 016 1.21 11.83 11.83 0 014.51 3.36l-3.19 3a9.34 9.34 0 00-7.09-3.2 9.74 9.74 0 00-5.37 1.39 8.73 8.73 0 00-3.46 3.92l10.94.12v2.67l-11.66-.13a13 13 0 00-.09 1.3 11.27 11.27 0 00.06 1.29l11.66.13v2.67l-11-.2a8.73 8.73 0 003.37 4 9.88 9.88 0 005.34 1.51 9.28 9.28 0 007.16-3.05z"/><path class="cls-2" d="M160.13 190.16c-.33-.07-.66-.14-1-.19l1.74.36c-.23-.07-.49-.11-.74-.17zM313.14 265.65a22.4 22.4 0 00-16.95-15.87l-.91-.18-107.34-18.19c6.11-29-14.11-38.2-27.05-41.08L141.3 283.4l-2.14 10.14c5.63 1.12 13 1.7 20-.34 9.2-2.69 17.84-9.9 21.31-26.34l104.59 26.4 1 .24a22.47 22.47 0 0027.11-27.85zm-32.78 13.28a9.34 9.34 0 1111.08-7.23 9.37 9.37 0 01-11.08 7.23z"/><path class="cls-3" d="M160.89 190.33L141.3 283.4l-2.14 10.14-1.74-.36-16.48-3.47 7.91-37.55 13.82-65.66 15.54 3.28.94.19 1.74.36z"/><path class="cls-1" d="M142.67 186.5l-13.82 65.66-7.91 37.55L56.73 281c.62-2.37 1.18-4.77 1.66-7.23l42.06 8.84a3.32 3.32 0 003.94-2.55 3.35 3.35 0 00-2.57-4l-42.31-8.9c.41-2.91.71-5.89.89-8.91l43.25 9.1a3.33 3.33 0 101.37-6.51l-44.42-9.32c0-3-.12-6.1-.39-9.21l46.65 9.83a3.33 3.33 0 101.37-6.51l-48.81-10.27c-.41-3-1-6.05-1.64-9.14l-.06-.32 52.34 11a3.32 3.32 0 101.37-6.5l-55.19-11.61c-.59-3.25-1.1-6.41-1.52-9.42l58.55 12.33a3.32 3.32 0 101.37-6.5l-60.72-12.8c-.3-3.21-.49-6.27-.56-9.23l63.11 13.31a3.32 3.32 0 101.37-6.5l-64.49-13.6c.09-3.16.31-6.14.64-9l65.69 13.85a3.32 3.32 0 101.37-6.5L55 170.83a75.29 75.29 0 012.28-8.83l6.82 2 64.9 18.58z"/><path class="cls-1" d="M104.39 280a3.32 3.32 0 01-3.94 2.55l-42.06-8.84c.44-2.15.81-4.36 1.12-6.57l42.31 8.9a3.35 3.35 0 012.57 3.96zM107.6 264.81a3.33 3.33 0 01-3.95 2.55l-43.25-9.1c.13-2.22.19-4.46.2-6.74l44.4 9.33a3.35 3.35 0 012.6 3.96zM110.81 249.56a3.35 3.35 0 01-4 2.58l-46.65-9.83c-.18-2.29-.42-4.61-.79-6.95l48.81 10.27a3.35 3.35 0 012.63 3.93zM114 234.34a3.33 3.33 0 01-4 2.58l-52.34-11q-.82-3.66-1.48-7.11l55.19 11.63a3.32 3.32 0 012.63 3.9zM117.22 219.12a3.34 3.34 0 01-4 2.58l-58.5-12.33c-.32-2.4-.6-4.73-.8-7l60.72 12.8a3.33 3.33 0 012.58 3.95zM120.42 203.93a3.32 3.32 0 01-4 2.55l-63.06-13.31c-.07-2.33-.06-4.61 0-6.79L117.84 200a3.33 3.33 0 012.58 3.93zM123.62 188.71a3.31 3.31 0 01-3.94 2.55L54 177.41c.28-2.3.62-4.48 1-6.58l66.05 13.93a3.34 3.34 0 012.57 3.95z"/><path class="cls-3" d="M120.42 203.93a3.32 3.32 0 01-4 2.55l-63.06-13.31c-.07-2.33-.06-4.61 0-6.79L117.84 200a3.33 3.33 0 012.58 3.93zM123.62 188.71a3.31 3.31 0 01-3.94 2.55L54 177.41c.28-2.3.62-4.48 1-6.58l66.05 13.93a3.34 3.34 0 012.57 3.95zM114 234.34a3.33 3.33 0 01-4 2.58l-52.34-11q-.82-3.66-1.48-7.11l55.19 11.63a3.32 3.32 0 012.63 3.9zM117.22 219.12a3.34 3.34 0 01-4 2.58l-58.5-12.33c-.32-2.4-.6-4.73-.8-7l60.72 12.8a3.33 3.33 0 012.58 3.95zM110.81 249.56a3.35 3.35 0 01-4 2.58l-46.65-9.83c-.18-2.29-.42-4.61-.79-6.95l48.81 10.27a3.35 3.35 0 012.63 3.93zM107.6 264.81a3.33 3.33 0 01-3.95 2.55l-43.25-9.1c.13-2.22.19-4.46.2-6.74l44.4 9.33a3.35 3.35 0 012.6 3.96zM104.39 280a3.32 3.32 0 01-3.94 2.55l-42.06-8.84c.44-2.15.81-4.36 1.12-6.57l42.31 8.9a3.35 3.35 0 012.57 3.96z"/><path class="cls-2" d="M60.6 251.52a112.43 112.43 0 01-1.09 15.65c-.31 2.21-.68 4.42-1.12 6.57-.48 2.46-1 4.86-1.66 7.23L45 279.35l-38.12-5.18a8 8 0 01-6.71-9.53l.64-3 1.37-6.5L4 246.39l1.37-6.5 1.83-8.72 1.39-6.51 5-23.94L15 194.2l1.83-8.72 5.21-24.74a8 8 0 0110-6L57.28 162a75.29 75.29 0 00-2.28 8.83c-.39 2.1-.73 4.28-1 6.58-.33 2.83-.55 5.81-.64 9-.05 2.18-.06 4.46 0 6.79.07 3 .26 6 .56 9.23.2 2.24.48 4.57.8 7 .42 3 .93 6.17 1.52 9.42q.66 3.45 1.48 7.11l.06.32c.69 3.09 1.23 6.13 1.64 9.14.37 2.34.61 4.66.79 6.95.27 3.05.39 6.13.39 9.15z"/></g></g></svg>