<svg viewBox="0 0 402.08 501.49" xmlns="http://www.w3.org/2000/svg"><path d="m41.96 27.98h101.71v.58h-101.71zm0 43.2h101.71v359.13h-101.71z" fill="#ffb400"/><path d="m158.92 61a10.17 10.17 0 0 1 -10.17 10.17h-111.87a10.17 10.17 0 0 1 -3.37-19.76h118.62a10.16 10.16 0 0 1 6.79 9.59z" fill="#f4812e"/><path d="m169 39.7a11.71 11.71 0 0 1 -11.72 11.72h-128.93a11.72 11.72 0 0 1 -3.63-22.86h136.2a11.72 11.72 0 0 1 8.08 11.14z" fill="#ffb400"/><path d="m185.63 14.28a14.27 14.27 0 0 1 -14.28 14.28h-157.07a14.28 14.28 0 0 1 0-28.56h157.07a14.28 14.28 0 0 1 14.28 14.28zm-26.71 426.2a10.16 10.16 0 0 1 -6.79 9.59h-118.62a10.17 10.17 0 0 1 3.37-19.76h111.87a10.17 10.17 0 0 1 10.17 10.17z" fill="#f4812e"/><path d="m169 461.79a11.72 11.72 0 0 1 -8.08 11.14h-136.2a11.72 11.72 0 0 1 3.63-22.86h128.93a11.72 11.72 0 0 1 11.72 11.72z" fill="#ffb400"/><g fill="#f4812e"><path d="m185.63 487.21a14.28 14.28 0 0 1 -14.28 14.28h-157.07a14.28 14.28 0 1 1 0-28.56h157.07a14.28 14.28 0 0 1 14.28 14.28z"/><rect height="310.47" rx="11.6" width="23.2" x="50.47" y="95.51"/><rect height="310.47" rx="11.6" width="23.2" x="80.96" y="95.51"/><rect height="310.47" rx="11.6" width="23.2" x="111.97" y="95.51"/></g><path d="m267.58 15.6h-.43v-.43z" fill="#0c1424"/><path d="m353 7.13h-87.21a7.12 7.12 0 0 0 -7.12 7.12v149.17h8.48v-42l38 38v1.45l-2.59 2.59h1.09a5.58 5.58 0 0 1 4.15 1.83 5.64 5.64 0 0 1 1.47 3.8v81.16a6.64 6.64 0 0 0 1.48 4.19 6.56 6.56 0 0 0 2.88 2.09 6.32 6.32 0 0 0 1.69.4l37.68-37.76v37.75h7.09v-242.67a7.11 7.11 0 0 0 -7.09-7.12zm-47.86 145.19-38-38v-7.6l38-38zm0-90.65-38 38v-77.44l38 38zm0-8.51-37.56-37.56h-.43v-.43l.43.43h37.56zm8.48-37.56h37.59l-37.59 37.59zm39.38 196.51-39.41 39.41v-83.66l39.41 39.41zm0-11.91-39.41-39.41v-1.37l39.41-39.42zm0-87.2-39.41 39.41v-83.7l39.41 39.41zm0-12-39.38-39.37v-1.37l39.38-39.41z" fill="#0c1424"/><path d="m320.6 256.92v137.08a11.85 11.85 0 0 1 -11.39 12 11.6 11.6 0 0 1 -11.81-11.6v-231h6.24a5.58 5.58 0 0 1 4.15 1.83 5.64 5.64 0 0 1 1.47 3.8v81.16a6.64 6.64 0 0 0 1.48 4.19 6.56 6.56 0 0 0 2.88 2.09 6.32 6.32 0 0 0 1.69.4z" fill="#f4812e"/><path d="m267.58 15.6h-.43v-.43z" fill="#0c1424"/><path d="m290.11 163.42v231a11.6 11.6 0 0 1 -23.2 0v-231z" fill="#f4812e"/><path d="m360.12 256.92v173.39h-101.71v-266.89h8.5v231a11.6 11.6 0 0 0 23.2 0v-231h7.29v231a11.6 11.6 0 0 0 11.81 11.58 11.85 11.85 0 0 0 11.39-12v-137.08h7.81v137.46a11.6 11.6 0 0 0 23.2 0v-137.46z" fill="#ffb400"/><path d="m375.37 440.48a10.16 10.16 0 0 1 -6.79 9.59h-118.58a10.17 10.17 0 0 1 3.38-19.76h111.82a10.17 10.17 0 0 1 10.17 10.17z" fill="#f4812e"/><path d="m385.45 461.79a11.72 11.72 0 0 1 -8.09 11.14h-136.2a11.72 11.72 0 0 1 3.64-22.86h128.93a11.72 11.72 0 0 1 11.72 11.72z" fill="#ffb400"/><path d="m402.08 487.21a14.28 14.28 0 0 1 -14.28 14.28h-157.07a14.28 14.28 0 1 1 0-28.56h157.07a14.28 14.28 0 0 1 14.28 14.28zm-86.08-230.29h-.7c.23-.01.45 0 .7 0zm35.61 0v137.46a11.6 11.6 0 0 1 -23.2 0v-137.46z" fill="#f4812e"/></svg>