<svg xmlns="http://www.w3.org/2000/svg" viewBox="0 0 369.41 286.75"><defs><style>.cls-1{fill:#bfa300}.cls-2{fill:#fff4a6}.cls-3{fill:#f6fafb}</style></defs><g id="Layer_2" data-name="Layer 2"><g id="verrekijker"><path class="cls-1" d="M154.94 219.12l-4 39.66a30.39 30.39 0 01-10.1 20.22 32.51 32.51 0 01-21.75 7.79c-17.18 0-34.25-11.43-41.73-28l-18-39.66c14.44 12.7 32.88 20.38 51.4 20.38 14.89 0 28-5 37.7-13.51a50.18 50.18 0 006.48-6.88z"/><path class="cls-2" d="M173.66 115L166 191a53.94 53.94 0 01-11.1 28.17 50.18 50.18 0 01-6.48 6.87c-9.72 8.55-22.81 13.51-37.7 13.51-18.52 0-37-7.68-51.4-20.38a83.74 83.74 0 01-21-28.17l-25.2-55.74A88.81 88.81 0 00173.66 115z"/><path class="cls-1" d="M13.12 135.26A88.44 88.44 0 014 115.19zM106.51 92.46l-9 4.1a1.31 1.31 0 00-.62.61l-6.72 17.07a1.44 1.44 0 01-1.38.79 1.4 1.4 0 01-1.34-.79l-6.73-17.07a1.31 1.31 0 00-.62-.61l-9-4.1a1 1 0 010-1.85l9-4.09a1.31 1.31 0 00.62-.61l6.73-17.1a1.6 1.6 0 012.72 0l6.72 17.1a1.31 1.31 0 00.62.61l9 4.09a1 1 0 010 1.85z"/><path class="cls-3" d="M106.51 92.46l-9 4.1a1.31 1.31 0 00-.62.61l-6.72 17.07a1.44 1.44 0 01-1.38.79 1.4 1.4 0 01-1.34-.79l-6.73-17.07a1.31 1.31 0 00-.62-.61l-9-4.1a1 1 0 010-1.85l9-4.09a1.31 1.31 0 00.62-.61l6.73-17.1a1.6 1.6 0 012.72 0l6.72 17.1a1.31 1.31 0 00.62.61l9 4.09a1 1 0 010 1.85z"/><path class="cls-1" d="M106.51 92.46l-9 4.1a1.31 1.31 0 00-.62.61l-6.72 17.07a1.44 1.44 0 01-1.38.79 1.4 1.4 0 01-1.34-.79l-6.73-17.07a1.31 1.31 0 00-.62-.61l-9-4.1a1 1 0 010-1.85l9-4.09a1.31 1.31 0 00.62-.61l6.73-17.1a1.6 1.6 0 012.72 0l6.72 17.1a1.31 1.31 0 00.62.61l9 4.09a1 1 0 010 1.85zM310 219.12l-18 39.66c-7.48 16.54-24.55 28-41.73 28a32.47 32.47 0 01-21.7-7.78 30.35 30.35 0 01-10.12-20.18l-4-39.69a49.88 49.88 0 006.5 6.9c9.73 8.55 22.82 13.51 37.7 13.51 18.52-.04 36.96-7.72 51.35-20.42z"/><path class="cls-2" d="M356.26 135.32L331 191a83.77 83.77 0 01-21 28.17c-14.43 12.7-32.87 20.38-51.4 20.38-14.88 0-28-5-37.7-13.51a49.88 49.88 0 01-6.5-6.9A54.08 54.08 0 01203.37 191l-7.62-76a88.82 88.82 0 00160.51 20.29z"/><path class="cls-1" d="M280.59 0a88.84 88.84 0 00-83.89 59.64 25.33 25.33 0 00-24 0A88.82 88.82 0 004 115a.35.35 0 00.06.16l9.11 20.07A88.81 88.81 0 00173.66 115a87 87 0 002.41-9.7 25.44 25.44 0 0017.27 0 84.84 84.84 0 002.41 9.7 88.82 88.82 0 00160.51 20.29v-.06l9.11-20.07a.33.33 0 00.05-.16A88.81 88.81 0 00280.59 0zm-158 121.25a33.76 33.76 0 11-67.51 0V56.34a33.76 33.76 0 0167.51 0zm191.8 0a33.76 33.76 0 11-67.52 0V56.34a33.76 33.76 0 0167.52 0z"/><path class="cls-1" d="M298.3 92.46l-9 4.1a1.29 1.29 0 00-.61.61L282 114.24a1.42 1.42 0 01-1.35.79 1.44 1.44 0 01-1.37-.79l-6.73-17.07a1.29 1.29 0 00-.61-.61l-9-4.1a1 1 0 010-1.85l9-4.09a1.29 1.29 0 00.61-.61l6.73-17.1a1.6 1.6 0 012.72 0l6.73 17.1a1.29 1.29 0 00.61.61l9 4.09a1 1 0 01-.04 1.85zM365.4 115.19a89.32 89.32 0 01-9.11 20.07z"/><path class="cls-3" d="M298.3 92.46l-9 4.1a1.29 1.29 0 00-.61.61L282 114.24a1.42 1.42 0 01-1.35.79 1.44 1.44 0 01-1.37-.79l-6.73-17.07a1.29 1.29 0 00-.61-.61l-9-4.1a1 1 0 010-1.85l9-4.09a1.29 1.29 0 00.61-.61l6.73-17.1a1.6 1.6 0 012.72 0l6.73 17.1a1.29 1.29 0 00.61.61l9 4.09a1 1 0 01-.04 1.85z"/><path class="cls-1" d="M298.3 92.46l-9 4.1a1.29 1.29 0 00-.61.61L282 114.24a1.42 1.42 0 01-1.35.79 1.44 1.44 0 01-1.37-.79l-6.73-17.07a1.29 1.29 0 00-.61-.61l-9-4.1a1 1 0 010-1.85l9-4.09a1.29 1.29 0 00.61-.61l6.73-17.1a1.6 1.6 0 012.72 0l6.73 17.1a1.29 1.29 0 00.61.61l9 4.09a1 1 0 01-.04 1.85z"/></g></g></svg>