<svg width="14" height="18" viewBox="0 0 14 18" fill="none" xmlns="http://www.w3.org/2000/svg">
<path d="M10.3232 1.17678L10.3964 1.25H10.5H13.75V2.75H0.25V1.25H3.5H3.60355L3.67678 1.17678L4.60355 0.25H9.39645L10.3232 1.17678ZM1.76431 17.2357C1.43636 16.9077 1.25148 16.4634 1.25 15.9996V4.25H12.75L12.75 15.9993C12.75 15.9994 12.75 15.9995 12.75 15.9996C12.7485 16.4634 12.5636 16.9077 12.2357 17.2357C11.9078 17.5636 11.4635 17.7485 10.9999 17.75C10.9997 17.75 10.9995 17.75 10.9993 17.75H3.00075C3.00055 17.75 3.00034 17.75 3.00014 17.75C2.53646 17.7485 2.0922 17.5636 1.76431 17.2357Z" stroke="#C4C4C4" stroke-width="0.5"/>
</svg>
