<svg width="19" height="18" viewBox="0 0 19 18" fill="none" xmlns="http://www.w3.org/2000/svg">
<path d="M5.75 16.5H3.5C3.10218 16.5 2.72064 16.342 2.43934 16.0607C2.15804 15.7794 2 15.3978 2 15V9.75C2 9.35218 2.15804 8.97064 2.43934 8.68934C2.72064 8.40804 3.10218 8.25 3.5 8.25H5.75M11 6.75V3.75C11 3.15326 10.7629 2.58097 10.341 2.15901C9.91903 1.73705 9.34674 1.5 8.75 1.5L5.75 8.25V16.5H14.21C14.5717 16.5041 14.9228 16.3773 15.1984 16.143C15.4741 15.9087 15.6558 15.5827 15.71 15.225L16.745 8.475C16.7776 8.26002 16.7631 8.04051 16.7025 7.83169C16.6419 7.62287 16.5366 7.42972 16.3939 7.26564C16.2512 7.10155 16.0746 6.97045 15.8762 6.88141C15.6778 6.79238 15.4624 6.74754 15.245 6.75H11Z" stroke="#54BBAB" stroke-width="2" stroke-linecap="round" stroke-linejoin="round"/>
</svg>
