<svg width="19" height="19" viewBox="0 0 19 19" fill="none" xmlns="http://www.w3.org/2000/svg">
<g clip-path="url(#clip0)">
<path d="M6.09788 17H4.09538C3.67091 17.0075 3.25845 16.8589 2.93632 16.5824C2.61418 16.3058 2.40478 15.9207 2.34788 15.5V10.25C2.40478 9.82927 2.61418 9.4441 2.93632 9.16759C3.25845 8.89108 3.67091 8.74247 4.09538 8.74997H6.09788M11.3479 7.24997V4.24997C11.3479 3.65324 11.1108 3.08094 10.6889 2.65898C10.2669 2.23703 9.69461 1.99997 9.09788 1.99997L6.09788 8.74997V17H14.5579C14.9196 17.0041 15.2707 16.8773 15.5463 16.643C15.822 16.4087 16.0036 16.0827 16.0579 15.725L17.0929 8.97497C17.1255 8.75999 17.111 8.54049 17.0504 8.33166C16.9898 8.12284 16.8845 7.9297 16.7418 7.76561C16.5991 7.60153 16.4224 7.47042 16.2241 7.38139C16.0257 7.29235 15.8103 7.24751 15.5929 7.24997H11.3479Z" stroke="white" stroke-width="2" stroke-linecap="round" stroke-linejoin="round"/>
</g>
<defs>
<clipPath id="clip0">
<rect width="18" height="18" fill="white" transform="translate(18.8477 18.5) rotate(-180)"/>
</clipPath>
</defs>
</svg>
