<svg width="18" height="18" viewBox="0 0 18 18" fill="none" xmlns="http://www.w3.org/2000/svg">
<path d="M10.5002 6.74997V3.74997C10.5002 3.15324 10.2632 2.58094 9.84121 2.15898C9.41925 1.73703 8.84696 1.49997 8.25022 1.49997L5.25022 8.24997V16.5H13.7102C14.072 16.5041 14.423 16.3773 14.6987 16.143C14.9743 15.9087 15.156 15.5827 15.2102 15.225L16.2452 8.47497C16.2779 8.25999 16.2634 8.04049 16.2027 7.83166C16.1421 7.62284 16.0368 7.4297 15.8941 7.26561C15.7514 7.10153 15.5748 6.97042 15.3764 6.88139C15.178 6.79235 14.9627 6.74751 14.7452 6.74997H10.5002ZM5.25022 16.5H3.24772C2.82325 16.5075 2.4108 16.3589 2.08866 16.0824C1.76652 15.8058 1.55713 15.4207 1.50022 15V9.74997C1.55713 9.32927 1.76652 8.9441 2.08866 8.66759C2.4108 8.39108 2.82325 8.24247 3.24772 8.24997H5.25022" fill="white"/>
<path d="M5.25022 16.5H3.24772C2.82325 16.5075 2.4108 16.3589 2.08866 16.0824C1.76652 15.8058 1.55713 15.4207 1.50022 15V9.74997C1.55713 9.32927 1.76652 8.9441 2.08866 8.66759C2.4108 8.39108 2.82325 8.24247 3.24772 8.24997H5.25022M10.5002 6.74997V3.74997C10.5002 3.15324 10.2632 2.58094 9.84121 2.15898C9.41925 1.73703 8.84696 1.49997 8.25022 1.49997L5.25022 8.24997V16.5H13.7102C14.072 16.5041 14.423 16.3773 14.6987 16.143C14.9743 15.9087 15.156 15.5827 15.2102 15.225L16.2452 8.47497C16.2779 8.25999 16.2634 8.04049 16.2027 7.83166C16.1421 7.62284 16.0368 7.4297 15.8941 7.26561C15.7514 7.10153 15.5748 6.97042 15.3764 6.88139C15.178 6.79235 14.9627 6.74751 14.7452 6.74997H10.5002Z" stroke="#EEEEEE" stroke-linecap="round" stroke-linejoin="round"/>
</svg>
