<svg width="34" height="34" viewBox="0 0 34 34" fill="none" xmlns="http://www.w3.org/2000/svg">
<g clip-path="url(#clip0)">
<path d="M32.1229 0H1.87708C0.840083 0 0 0.840083 0 1.87708V32.1243C0 33.1599 0.840083 34 1.87708 34H18.1617V20.8335H13.7303V15.7023H18.1617V11.9184C18.1617 7.52675 20.8434 5.13542 24.7619 5.13542C26.639 5.13542 28.2512 5.27567 28.7215 5.338V9.928L26.0043 9.92942C23.8737 9.92942 23.4614 10.9423 23.4614 12.427V15.7037H28.543L27.8814 20.8349H23.4614V34H32.1257C33.1599 34 34 33.1599 34 32.1229V1.87708C34 0.840083 33.1599 0 32.1229 0V0Z" fill="#767676"/>
</g>
<defs>
<clipPath id="clip0">
<rect width="34" height="34" rx="6" fill="white"/>
</clipPath>
</defs>
</svg>
