<svg fill="none" height="45" viewBox="0 0 45 45" width="45" xmlns="http://www.w3.org/2000/svg" xmlns:xlink="http://www.w3.org/1999/xlink"><clipPath id="a"><rect height="45" rx="10" width="45"/></clipPath><g clip-path="url(#a)"><path d="m42.5156 0h-40.03122c-1.3725 0-2.48438 1.11188-2.48438 2.48438v40.03312c0 1.3706 1.11188 2.4825 2.48438 2.4825h21.55312v-17.4262h-5.865v-6.7913h5.865v-5.0081c0-5.81253 3.5494-8.97752 8.7356-8.97752 2.4844 0 4.6182.18562 5.2407.26812v6.075l-3.5963.0019c-2.82 0-3.3656 1.3406-3.3656 3.3056v4.3369h6.7256l-.8756 6.7912h-5.85v17.4244h11.4675c1.3687 0 2.4806-1.1119 2.4806-2.4844v-40.03122c0-1.3725-1.1119-2.48438-2.4844-2.48438z" fill="#fff"/></g></svg>