<svg fill="none" height="45" viewBox="0 0 45 45" width="45" xmlns="http://www.w3.org/2000/svg"><path d="m28.5619 10.29c-1.5807-.0712-2.0569-.0863-6.0619-.0863s-4.4794.0151-6.06.0863c-4.0688.1856-5.9644 2.1131-6.1481 6.1481-.0731 1.5825-.09 2.0569-.09 6.0619s.0169 4.4794.0881 6.0619c.1856 4.0275 2.0738 5.9625 6.1481 6.1481 1.5807.0712 2.0569.0881 6.0619.0881 4.0069 0 4.4812-.015 6.0619-.0862 4.0687-.1856 5.9625-2.1169 6.1481-6.1481.0712-1.5825.0862-2.0569.0862-6.0619s-.015-4.4794-.0862-6.06c-.1856-4.0369-2.0831-5.9663-6.1481-6.1519zm-6.0619 19.9125c-4.2544 0-7.7025-3.4481-7.7025-7.7025s3.45-7.7025 7.7025-7.7025 7.7025 3.4481 7.7025 7.7025-3.4481 7.7025-7.7025 7.7025zm8.0081-13.9088c-.9937 0-1.8-.8062-1.8-1.8 0-.9937.8063-1.7999 1.8-1.7999.9938 0 1.8.8062 1.8 1.7999 0 .9938-.8062 1.8-1.8 1.8zm-3.0075 6.2063c0 2.7619-2.2387 5.0006-5.0006 5.0006s-5.0006-2.2387-5.0006-5.0006 2.2387-5.0006 5.0006-5.0006 5.0006 2.2387 5.0006 5.0006zm8.1244-22.5h-26.25c-5.17687 0-9.375 4.19813-9.375 9.375v26.25c0 5.1769 4.19813 9.375 9.375 9.375h26.25c5.1787 0 9.375-4.1981 9.375-9.375v-26.25c0-5.17687-4.1963-9.375-9.375-9.375zm1.785 28.6838c-.2475 5.4543-3.2831 8.4768-8.7244 8.7262-1.6012.0731-2.1112.09-6.1856.09s-4.5825-.0169-6.1838-.09c-5.4525-.2494-8.47495-3.2775-8.7262-8.7262-.07313-1.5994-.09-2.1094-.09-6.1838 0-4.0725.01687-4.5844.09-6.1838.25125-5.4525 3.2775-8.47683 8.7262-8.72433 1.6013-.075 2.1094-.09187 6.1838-.09187s4.5844.01687 6.1856.09c5.4525.24937 8.4806 3.2831 8.7244 8.7244.0731 1.6012.09 2.1131.09 6.1856 0 4.0744-.0169 4.5844-.09 6.1838z" fill="#fff"/></svg>