<svg fill="none" height="45" viewBox="0 0 45 45" width="45" xmlns="http://www.w3.org/2000/svg"><path d="m35.625 0h-26.25c-5.17687 0-9.375 4.19813-9.375 9.375v26.25c0 5.1769 4.19813 9.375 9.375 9.375h26.25c5.1787 0 9.375-4.1981 9.375-9.375v-26.25c0-5.17687-4.1963-9.375-9.375-9.375zm-20.625 35.625h-5.625v-20.625h5.625zm-2.8125-23.0025c-1.8112 0-3.28125-1.4813-3.28125-3.3075 0-1.82625 1.47005-3.3075 3.28125-3.3075s3.2813 1.48125 3.2813 3.3075c0 1.8262-1.4682 3.3075-3.2813 3.3075zm25.3125 23.0025h-5.625v-10.5075c0-6.315-7.5-5.8369-7.5 0v10.5075h-5.625v-20.625h5.625v3.3094c2.6175-4.8488 13.125-5.2069 13.125 4.6425z" fill="#fff"/></svg>