<svg fill="none" height="34" viewBox="0 0 34 34" width="34" xmlns="http://www.w3.org/2000/svg" xmlns:xlink="http://www.w3.org/1999/xlink"><clipPath id="a"><path d="m0 0h34v34h-34z"/></clipPath><g clip-path="url(#a)"><path d="m8.76625 12.3517c.62191-.6219 1.31185-1.1348 2.04565-1.5399 4.0899-2.25394 9.3344-1.05544 11.9638 2.9311l-3.1819 3.1804c-.9123-2.0811-3.1776-3.2654-5.4315-2.7611-.8486.1898-1.6546.6134-2.3134 1.2722l-6.09732 6.1001c-1.85158 1.8516-1.85158 4.8634 0 6.715s4.86342 1.8516 6.71502 0l1.8799-1.8799c1.7099.6786 3.5431.9492 5.3536.8146l-4.1494 4.1494c-3.5573 3.5573-9.32454 3.5573-12.88179 0-3.557246-3.5572-3.557246-9.3245 0-12.8817zm9.68435-9.68434-4.1494 4.14942c1.809-.136 3.6436.136 5.3535.81317l1.8785-1.8785c1.8516-1.85159 4.8635-1.85159 6.715 0 1.8516 1.85158 1.8516 4.86345 0 6.71495l-6.0987 6.0988c-1.8573 1.8572-4.8733 1.8417-6.715 0-.4293-.4293-.799-.9633-1.0299-1.4889l-3.1819 3.1804c.3344.5072.6815.9449 1.1277 1.3912 1.1503 1.1503 2.6152 2.0074 4.301 2.414 2.1845.5256 4.5248.2351 6.5351-.8741.7338-.4052 1.4237-.918 2.0457-1.5399l6.0973-6.0988c3.5587-3.5572 3.5587-9.32449.0014-12.88174-3.5572-3.55583-9.3231-3.55583-12.8803 0z" fill="#767676"/></g></svg>