<svg fill="none" height="34" viewBox="0 0 34 34" width="34" xmlns="http://www.w3.org/2000/svg" xmlns:xlink="http://www.w3.org/1999/xlink"><clipPath id="a"><path d="m0 0h34v34h-34z"/></clipPath><g clip-path="url(#a)"><path d="m34 6.45578c-1.2509.55533-2.5953.92933-4.0063 1.09791 1.4407-.86275 2.5471-2.22983 3.067-3.859-1.3472.799-2.8404 1.37984-4.4299 1.69292-1.2707-1.35575-3.0855-2.20292-5.0915-2.20292-4.5036 0-7.8129 4.20184-6.7957 8.56371-5.7956-.2904-10.93527-3.06704-14.37635-7.28729-1.8275 3.13508-.94775 7.23629 2.15758 9.31319-1.14183-.0369-2.2185-.3499-3.15775-.8727-.0765 3.2314 2.23975 6.2546 5.59442 6.9275-.98175.2663-2.057.3287-3.15067.119.88684 2.771 3.46234 4.7869 6.51667 4.8436-2.9325 2.2992-6.62717 3.3263-10.3275 2.89 3.08692 1.9791 6.75467 3.1337 10.693 3.1337 12.9512 0 20.2682-10.9381 19.8262-20.7485 1.3629-.98462 2.5458-2.21287 3.4808-3.61112z" fill="#767676"/></g></svg>