<svg width="13" height="16" viewBox="0 0 13 16" fill="none" xmlns="http://www.w3.org/2000/svg">
<path d="M9.37193 5.375C6.51306 5.375 3.6327 5.375 0.773829 5.375C-0.257943 5.375 -0.257943 7.375 0.773829 7.375C3.6327 7.375 6.51306 7.375 9.37193 7.375C10.4037 7.375 10.4252 5.375 9.37193 5.375C6.51306 5.375 3.6327 5.375 0.773829 5.375C-0.257943 5.375 -0.257943 7.375 0.773829 7.375C3.6327 7.375 6.51306 7.375 9.37193 7.375C10.4037 7.375 10.4252 5.375 9.37193 5.375Z" fill="#111111"/>
<path d="M9.37193 8.23303C6.51306 8.23303 3.6327 8.23303 0.773829 8.23303C-0.257943 8.23303 -0.257943 10.233 0.773829 10.233C3.6327 10.233 6.51306 10.233 9.37193 10.233C10.4037 10.233 10.4252 8.23303 9.37193 8.23303C6.51306 8.23303 3.6327 8.23303 0.773829 8.23303C-0.257943 8.23303 -0.257943 10.233 0.773829 10.233C3.6327 10.233 6.51306 10.233 9.37193 10.233C10.4037 10.233 10.4252 8.23303 9.37193 8.23303Z" fill="#111111"/>
<path d="M11.9998 14.7615C10.9277 15.0357 9.80435 15.074 8.71446 14.8736C7.62457 14.6731 6.59657 14.239 5.70797 13.6041C4.81936 12.9692 4.09333 12.15 3.58461 11.2083C3.07588 10.2666 2.79774 9.22696 2.77115 8.16771C2.74456 7.10846 2.9702 6.05727 3.43109 5.09338C3.89197 4.12949 4.57606 3.27805 5.43178 2.60324C6.28751 1.92844 7.29254 1.44788 8.37112 1.19779C9.4497 0.947695 10.5737 0.934602 11.6583 1.15949" stroke="#111111" stroke-width="2" stroke-linecap="round"/>
</svg>
